<?xml version="1.0" standalone="no"?>
<!DOCTYPE svg PUBLIC "-//W3C//DTD SVG 20010904//EN"
 "http://www.w3.org/TR/2001/REC-SVG-20010904/DTD/svg10.dtd">
<svg version="1.0" xmlns="http://www.w3.org/2000/svg"
 width="1112.000000pt" height="1112.000000pt" viewBox="0 0 1112.000000 1112.000000"
 preserveAspectRatio="xMidYMid meet">
<metadata>
Created by potrace 1.14, written by Peter Selinger 2001-2017
</metadata>
<g transform="translate(0.000000,1112.000000) scale(0.100000,-0.100000)"
fill="#000000" stroke="none">
<path d="M2419 6856 c-3 -4 -91 -12 -189 -18 -8 0 -48 -7 -89 -14 -41 -8 -87
-17 -103 -19 -28 -5 -76 -22 -153 -53 -141 -57 -281 -192 -366 -352 -16 -30
-33 -62 -39 -70 -5 -8 -23 -49 -41 -90 -17 -41 -39 -93 -49 -115 -10 -22 -32
-76 -50 -120 -17 -44 -36 -89 -41 -100 -5 -11 -40 -94 -77 -185 -124 -298
-338 -746 -480 -1005 -21 -38 -60 -110 -87 -160 -26 -49 -51 -94 -55 -100 -4
-5 -22 -36 -39 -67 l-32 -58 73 0 c115 -1 915 -1 1000 0 70 0 77 2 84 22 3 12
26 64 51 117 25 53 51 110 58 126 8 17 33 71 56 120 23 50 43 95 44 100 2 6
27 62 58 125 30 63 57 125 61 136 4 12 17 24 29 26 12 2 256 3 543 3 l521 -1
184 365 c101 201 187 372 191 381 6 16 -33 17 -513 16 -285 -1 -519 1 -519 4
0 3 21 52 47 110 l46 106 594 -1 594 0 76 155 c118 241 159 324 171 345 19 36
122 251 122 256 0 6 16 6 -946 13 -402 3 -733 4 -735 2z m1087 -178 l271 -3
-34 -70 c-19 -38 -64 -131 -101 -205 l-67 -135 -435 -2 c-239 -2 -507 -3 -595
-3 l-160 0 -47 -103 c-26 -56 -69 -149 -96 -207 -27 -58 -61 -132 -76 -165
-15 -33 -31 -68 -36 -77 -9 -16 22 -17 473 -17 265 0 499 0 519 -1 l38 0 -101
-200 c-55 -110 -105 -202 -109 -205 -7 -4 -127 -6 -305 -4 -11 0 -76 0 -145 0
-69 -1 -132 -1 -140 0 -8 0 -62 0 -120 0 -58 0 -112 0 -120 0 -8 0 -68 -1
-133 -2 l-119 -2 -39 -84 c-21 -46 -39 -86 -39 -88 0 -2 -22 -50 -49 -107 -72
-152 -144 -308 -146 -318 0 -3 -19 -43 -41 -90 l-40 -85 -311 0 c-172 0 -314
3 -318 6 -3 4 5 26 18 50 82 149 111 206 213 409 160 322 238 496 409 910 122
297 173 411 188 421 5 3 8 10 7 15 -2 18 85 140 134 187 73 70 186 125 291
142 17 3 41 7 55 10 61 11 92 14 200 20 63 3 115 7 116 8 3 2 410 0 990 -5z"/>
<path d="M4540 6852 c-31 -3 -39 -9 -61 -50 -14 -26 -41 -76 -61 -112 -85
-156 -103 -190 -146 -270 -25 -47 -48 -87 -51 -90 -3 -3 -18 -30 -34 -60 -43
-86 -96 -182 -108 -197 -6 -7 -8 -13 -5 -13 4 0 -2 -13 -13 -29 -12 -16 -21
-32 -21 -35 0 -4 -11 -24 -25 -46 -14 -22 -23 -40 -19 -40 3 0 -2 -7 -11 -16
-10 -10 -12 -19 -7 -23 6 -3 80 -5 165 -5 l155 2 -13 -32 c-7 -17 -43 -91 -79
-164 -36 -73 -66 -134 -66 -136 0 -2 -18 -35 -39 -75 -22 -39 -38 -71 -36 -71
3 0 -210 -437 -245 -501 -21 -40 -61 -119 -85 -169 -14 -30 -30 -62 -35 -70
-24 -42 -150 -309 -150 -319 0 -6 6 -11 13 -12 10 0 150 1 197 3 8 0 26 0 40
-1 14 -1 33 -1 43 -1 9 0 44 1 77 1 33 0 70 0 83 0 99 1 205 0 222 -1 24 -1
19 -1 130 -1 140 0 159 0 260 1 11 0 29 0 40 0 16 1 42 44 128 213 102 202
288 567 557 1092 67 132 181 355 253 495 124 245 292 572 345 673 13 26 22 51
18 54 -6 6 -1348 11 -1416 5z m1050 -226 c0 -6 -134 -263 -142 -273 -6 -7 -8
-13 -6 -13 3 0 -32 -71 -76 -159 -45 -87 -160 -315 -256 -507 -96 -192 -178
-350 -182 -352 -5 -2 -8 -9 -8 -16 0 -6 -22 -54 -50 -106 -27 -52 -50 -100
-50 -106 0 -7 -3 -14 -7 -16 -5 -1 -71 -129 -148 -282 -77 -154 -145 -284
-151 -290 -7 -8 -83 -11 -235 -9 -123 1 -277 2 -342 3 l-118 0 97 188 c53 103
135 261 181 352 47 91 123 237 168 325 45 88 117 228 160 310 42 83 81 154 86
159 5 6 9 18 9 27 0 10 3 19 8 21 7 3 82 148 82 159 0 4 -66 6 -147 4 -82 -2
-152 -1 -156 2 -4 3 3 23 16 46 14 23 41 74 62 112 21 39 76 137 122 219 45
81 83 152 83 157 0 5 9 18 20 29 20 20 30 21 500 19 264 0 480 -2 480 -3z"/>
<path d="M9977 6684 c-2 -2 -71 -6 -153 -9 -83 -3 -181 -7 -220 -10 -38 -2
-118 -7 -179 -10 -112 -7 -128 -8 -270 -19 -140 -11 -291 -25 -330 -31 -16 -2
-66 -7 -110 -11 -44 -3 -89 -8 -100 -10 -11 -2 -47 -6 -80 -9 -33 -3 -72 -8
-86 -10 -15 -3 -47 -7 -70 -10 -75 -9 -122 -16 -179 -25 -30 -5 -77 -12 -105
-15 -27 -3 -57 -8 -65 -10 -8 -2 -35 -6 -60 -9 -25 -3 -55 -8 -66 -10 -43 -9
-100 -18 -124 -20 -14 -2 -34 -6 -45 -9 -11 -3 -40 -9 -65 -12 -25 -4 -67 -11
-95 -16 -49 -10 -73 -15 -117 -23 -13 -3 -68 -14 -123 -26 -55 -12 -113 -24
-130 -27 -16 -3 -38 -9 -47 -14 -10 -5 -18 -8 -18 -5 0 3 -15 0 -32 -5 -18 -5
-44 -11 -58 -14 -47 -8 -385 -103 -465 -130 -44 -15 -84 -28 -90 -30 -5 -1
-17 -5 -25 -8 -8 -3 -46 -17 -85 -31 -140 -49 -424 -181 -445 -205 -3 -3 -27
-21 -55 -40 -64 -44 -125 -105 -157 -156 -29 -46 -55 -121 -52 -151 7 -107 50
-176 159 -260 123 -95 355 -186 858 -338 48 -14 126 -38 175 -52 370 -112 618
-221 668 -293 15 -20 13 -23 -17 -52 -61 -57 -206 -116 -415 -169 -83 -22
-163 -41 -179 -44 -16 -3 -51 -10 -79 -15 -59 -12 -78 -16 -206 -37 -52 -9
-108 -18 -125 -19 -16 -2 -30 -4 -30 -5 0 -1 -10 -3 -150 -20 -49 -6 -101 -13
-115 -16 -14 -2 -54 -6 -90 -10 -36 -3 -73 -8 -82 -9 -9 -2 -49 -6 -90 -10
-40 -4 -91 -9 -113 -11 -77 -8 -131 -13 -205 -19 -41 -3 -91 -8 -110 -10 -19
-2 -71 -7 -115 -10 -44 -3 -109 -7 -145 -10 -36 -3 -99 -7 -140 -10 -41 -3
-106 -7 -145 -10 -64 -5 -116 -8 -340 -20 -44 -2 -120 -7 -170 -10 -204 -12
-859 -39 -1240 -50 -695 -22 -1917 -42 -2722 -45 l-72 0 -27 -57 c-15 -32 -41
-92 -59 -133 -18 -41 -43 -97 -56 -125 -12 -27 -23 -52 -24 -55 -1 -3 -11 -26
-23 -53 -12 -26 -22 -49 -22 -52 0 -2 -14 -31 -30 -64 -17 -33 -30 -62 -30
-65 0 -4 -27 -66 -84 -191 -13 -27 -34 -75 -46 -105 -13 -30 -28 -61 -33 -67
-6 -9 -3 -15 9 -20 25 -10 1926 -9 2254 1 140 4 323 9 405 11 83 2 150 4 150
5 0 0 56 3 125 5 69 3 175 7 235 10 346 16 499 24 600 30 44 3 125 7 180 10
55 3 125 7 155 10 30 2 100 7 155 11 55 3 116 7 135 9 19 1 78 5 130 9 52 4
115 9 140 11 25 2 81 7 125 10 44 3 96 8 115 10 19 2 71 6 115 10 44 3 94 7
110 10 17 2 66 6 110 10 44 3 116 10 160 16 44 5 109 11 145 14 36 3 79 8 96
10 16 2 59 6 95 10 35 3 82 8 104 11 22 3 56 7 75 9 125 12 158 16 180 20 14
2 50 7 80 10 30 3 66 8 80 10 14 2 50 7 80 10 30 3 62 7 70 10 8 2 40 6 70 10
30 3 71 8 90 10 19 3 55 7 80 10 25 2 56 7 70 9 14 3 43 7 65 11 22 3 67 10
100 15 33 5 83 12 110 15 28 4 57 8 65 10 8 2 38 7 65 11 28 3 59 8 70 10 61
12 134 24 160 28 34 4 76 11 185 31 41 8 89 16 105 19 17 2 41 7 55 10 14 3
39 8 55 10 81 13 159 27 164 31 3 1 22 6 41 9 19 3 60 10 90 16 56 11 82 17
123 24 191 36 374 88 602 170 6 2 21 7 35 12 53 16 288 142 355 189 269 192
378 429 303 665 -36 116 -112 219 -252 345 -113 101 -385 251 -616 340 -52 19
-117 44 -145 55 -93 36 -498 152 -602 174 -16 3 -29 16 -17 17 9 1 19 2 84 14
19 4 37 7 40 8 3 0 21 4 40 9 19 4 55 10 80 13 25 3 57 8 72 11 14 3 46 7 70
9 23 3 63 7 88 10 77 8 172 17 245 21 115 6 225 13 310 20 44 3 408 7 809 9
l729 3 29 38 c16 22 71 98 123 169 52 72 98 135 102 140 8 10 111 153 143 199
8 11 53 73 100 138 47 64 92 126 100 138 8 12 32 45 53 73 21 29 43 59 47 68
8 15 -39 16 -560 16 -313 0 -571 -2 -573 -3z m658 -260 c-10 -16 -43 -63 -74
-104 -83 -113 -152 -208 -191 -266 -20 -28 -45 -63 -57 -77 l-21 -27 -669 -4
c-367 -2 -697 -7 -733 -10 -36 -2 -121 -8 -190 -11 -170 -9 -312 -20 -380 -30
-14 -2 -56 -6 -95 -10 -38 -3 -81 -8 -95 -11 -14 -2 -41 -6 -60 -9 -19 -2 -47
-6 -61 -9 -14 -3 -41 -8 -60 -10 -19 -3 -35 -6 -36 -7 -4 -2 -13 -4 -63 -13
-25 -5 -85 -22 -135 -38 -159 -53 -229 -106 -254 -196 -12 -39 3 -107 29 -135
11 -11 20 -24 20 -27 0 -4 24 -18 53 -32 44 -22 107 -40 222 -64 50 -10 66
-14 160 -39 107 -27 357 -101 390 -114 11 -5 83 -32 160 -61 192 -72 401 -180
534 -275 46 -32 179 -176 196 -210 68 -142 40 -247 -103 -382 -36 -35 -69 -63
-73 -63 -4 0 -14 -6 -21 -12 -36 -34 -284 -160 -338 -172 -3 -1 -9 -4 -15 -8
-36 -22 -427 -130 -513 -142 -24 -3 -46 -7 -50 -10 -4 -2 -25 -7 -47 -10 -38
-6 -60 -10 -115 -22 -14 -3 -36 -7 -50 -10 -14 -2 -48 -9 -76 -15 -28 -5 -64
-12 -80 -15 -16 -2 -42 -7 -59 -11 -16 -3 -37 -7 -45 -8 -8 -1 -42 -7 -75 -13
-33 -6 -76 -14 -95 -17 -33 -5 -129 -22 -176 -31 -11 -2 -36 -6 -55 -8 -19 -3
-34 -5 -34 -6 0 -1 -7 -2 -90 -14 -53 -7 -92 -13 -135 -21 -19 -4 -46 -8 -60
-10 -14 -2 -47 -6 -75 -10 -27 -4 -58 -9 -69 -11 -10 -2 -44 -6 -75 -10 -31
-3 -65 -8 -76 -10 -11 -2 -44 -6 -73 -10 -29 -3 -61 -7 -70 -9 -9 -1 -46 -6
-82 -10 -36 -4 -74 -9 -85 -11 -42 -8 -293 -39 -405 -49 -36 -3 -76 -8 -90
-10 -14 -2 -52 -7 -85 -10 -33 -4 -78 -9 -100 -12 -22 -3 -58 -6 -80 -8 -22
-1 -65 -5 -95 -9 -30 -3 -82 -8 -115 -11 -33 -3 -78 -7 -100 -10 -22 -2 -69
-7 -105 -10 -120 -10 -195 -16 -235 -20 -22 -3 -76 -7 -120 -10 -44 -3 -99 -7
-122 -10 -50 -5 -167 -13 -400 -29 -44 -3 -112 -8 -150 -11 -82 -6 -237 -15
-353 -20 -47 -2 -119 -6 -160 -9 -144 -11 -544 -28 -990 -41 -113 -4 -266 -8
-340 -11 -205 -7 -1900 -13 -1900 -7 0 7 98 231 177 403 17 36 33 75 37 88 7
21 12 22 139 23 868 5 1727 20 2522 44 397 12 454 14 595 20 80 4 186 8 235
10 147 6 334 15 435 21 52 3 127 7 165 9 97 5 259 15 325 20 30 2 98 7 150 10
52 3 120 8 150 10 126 12 159 14 248 20 52 4 102 8 113 10 10 2 59 7 108 10
49 3 100 8 113 10 12 3 48 7 78 10 166 15 345 36 430 50 14 2 48 7 75 10 28 3
61 7 75 10 103 16 272 43 305 50 163 31 364 78 425 100 22 8 41 14 43 14 20
-2 211 78 272 113 258 153 270 382 29 549 -47 32 -217 119 -233 119 -6 0 -20
5 -31 10 -11 6 -28 14 -37 18 -10 5 -112 39 -228 77 -115 37 -217 70 -225 73
-8 3 -21 6 -28 8 -14 3 -136 40 -297 91 -371 116 -615 234 -615 297 0 23 64
84 145 137 123 80 298 157 560 244 93 30 179 58 190 60 11 2 20 4 20 5 0 1 7
3 15 5 8 2 114 28 235 59 186 47 528 120 655 140 19 3 46 8 60 11 13 2 42 7
65 10 22 3 47 8 55 10 8 2 35 7 60 10 25 3 56 8 70 11 14 2 41 6 60 9 19 2 51
7 70 10 19 3 53 7 75 10 22 3 50 7 62 9 12 3 48 7 80 11 33 3 70 7 84 10 50 8
169 22 259 30 36 3 81 8 100 10 81 9 215 22 330 30 30 2 82 6 115 9 179 14
296 21 560 31 99 4 181 7 182 8 1 1 142 4 314 5 l312 4 -18 -28z"/>
</g>
</svg>
