<svg version="1.1" id="Capa_1" xmlns="http://www.w3.org/2000/svg" x="0" y="0" viewBox="0 0 512 341.4" xml:space="preserve"><style>.st0{fill:#f0f0f0}.st1{fill:#d80027}</style><path class="st0" d="M0 0h512v341.3H0z"/><path class="st1" d="M0 42.7h512v42.7H0zM0 128h512v42.7H0zM0 213.4h512v42.7H0zM0 298.7h512v42.7H0z"/><path fill="#2e52b2" d="M0 0h256v183.8H0z"/><g><path class="st0" d="M99.8 75.3L95.7 88H82.4l10.8 7.8-4.2 12.7 10.8-7.8 10.8 7.8-4.1-12.7 10.8-7.8h-13.4zM103.9 133.8l-4.1-12.7-4.1 12.7H82.4l10.8 7.8-4.2 12.7 10.8-7.8 10.8 7.8-4.1-12.7 10.8-7.8zM47.6 133.8l-4.1-12.7-4.2 12.7H26l10.8 7.8-4.1 12.7 10.8-7.8 10.7 7.8-4.1-12.7 10.8-7.8zM43.5 75.3L39.3 88H26l10.8 7.8-4.1 12.7 10.8-7.8 10.7 7.8-4.1-12.7L60.9 88H47.6zM99.8 29.5l-4.1 12.7H82.4l10.8 7.9L89 62.8l10.8-7.9 10.8 7.9-4.1-12.7 10.8-7.9h-13.4zM43.5 29.5l-4.2 12.7H26l10.8 7.9-4.1 12.7 10.8-7.9 10.7 7.9-4.1-12.7 10.8-7.9H47.6zM156.2 75.3L152.1 88h-13.4l10.8 7.8-4.1 12.7 10.8-7.8 10.8 7.8-4.2-12.7 10.8-7.8h-13.3zM160.3 133.8l-4.1-12.7-4.1 12.7h-13.4l10.8 7.8-4.1 12.7 10.8-7.8 10.8 7.8-4.2-12.7 10.8-7.8zM216.7 133.8l-4.2-12.7-4.1 12.7h-13.3l10.8 7.8-4.1 12.7 10.7-7.8 10.8 7.8-4.1-12.7 10.8-7.8zM212.5 75.3L208.4 88h-13.3l10.8 7.8-4.1 12.7 10.7-7.8 10.8 7.8-4.1-12.7L230 88h-13.3zM156.2 29.5l-4.1 12.7h-13.4l10.8 7.9-4.1 12.7 10.8-7.9 10.8 7.9-4.2-12.7 10.8-7.9h-13.3zM212.5 29.5l-4.1 12.7h-13.3l10.8 7.9-4.1 12.7 10.7-7.9 10.8 7.9-4.1-12.7 10.8-7.9h-13.3z"/></g></svg>