<svg version="1.1" id="Capa_1" xmlns="http://www.w3.org/2000/svg" x="0" y="0" viewBox="0 0 512 341.3" xml:space="preserve"><style>.st0{fill:#0052b4}.st1{fill:#f0f0f0}.st2{fill:#d80027}</style><path class="st0" d="M0 0h512v341.3H0z"/><path class="st1" d="M223.4 170.7c.3-.3.5-.6.8-.9-.3.3-.5.6-.8.9zM189.2 212.6l11 22.9 24.7-5.7-11.1 22.8 19.9 15.8L209 274v25.4l-19.8-15.9-19.8 15.9.1-25.4-24.8-5.6 19.9-15.8-11.1-22.8 24.8 5.7zM387.1 241.1l5.2 10.9 11.8-2.7-5.3 10.9 9.5 7.5-11.8 2.6v12.2l-9.4-7.6-9.5 7.6.1-12.2-11.9-2.6 9.5-7.5-5.3-10.9 11.9 2.7zM338.5 125.1l5.2 10.9 11.8-2.7-5.3 10.9 9.5 7.5-11.8 2.7v12.1l-9.4-7.6-9.5 7.6v-12.1l-11.8-2.7 9.5-7.5-5.3-10.9 11.8 2.7zM387.1 58.9l5.2 10.9 11.8-2.7-5.3 10.9 9.5 7.5-11.8 2.7v12.1l-9.4-7.6-9.5 7.6.1-12.1-11.9-2.7 9.5-7.5-5.3-10.9 11.9 2.7zM429.5 108.6l5.3 10.9 11.8-2.7-5.3 10.9 9.5 7.5-11.8 2.6V150l-9.5-7.6-9.4 7.6v-12.2l-11.8-2.6 9.5-7.5-5.3-10.9 11.8 2.7zM399.2 166.5l4.1 12.7h13.3l-10.8 7.8 4.1 12.7-10.7-7.9-10.8 7.9 4.1-12.7-10.7-7.8h13.3z"/><path class="st1" d="M256 0v30.6l-45.2 25.1H256V115h-59.1l59.1 32.8v22.9h-26.7l-73.5-40.9v40.9h-55.6v-48.6l-87.5 48.6H0v-30.6L45.2 115H0V55.7h59.1L0 22.8V0h26.7l73.5 40.8V0h55.6v48.6L243.3 0z"/><path class="st2" d="M144 0h-32v69.3H0v32h112v69.4h32v-69.4h112v-32H144z"/><path class="st0" d="M155.8 115L256 170.7v-15.8L184.2 115z"/><path class="st1" d="M155.8 115L256 170.7v-15.8L184.2 115z"/><g><path class="st2" d="M155.8 115L256 170.7v-15.8L184.2 115zM71.8 115L0 154.9v15.8L100.2 115z"/></g><path class="st0" d="M100.2 55.7L0 0v15.7l71.8 40z"/><path class="st1" d="M100.2 55.7L0 0v15.7l71.8 40z"/><g><path class="st2" d="M100.2 55.7L0 0v15.7l71.8 40zM184.2 55.7l71.8-40V0L155.8 55.7z"/></g></svg>