<svg version="1.1" id="Capa_1" xmlns="http://www.w3.org/2000/svg" x="0" y="0" viewBox="0 0 512 341.3" xml:space="preserve"><style>.st3{fill:#0052b4}</style><path fill="#6da544" d="M0 0h512v341.3H0z"/><path fill="#ffda44" d="M256 76.3l128 94.4L256 265l-128-94.3z"/><circle cx="256" cy="170.7" r="53.9" fill="#f0f0f0"/><path class="st3" d="M229.1 167.3c-9.4 0-18.4 1.4-26.9 4.1.4 29.4 24.3 53.2 53.9 53.2 18.3 0 34.4-9.1 44.1-23-16.7-20.9-42.4-34.3-71.1-34.3zM308.9 181c.6-3.3 1-6.8 1-10.3 0-29.8-24.1-53.9-53.9-53.9-22.2 0-41.3 13.4-49.5 32.6 7.3-1.5 14.8-2.3 22.6-2.3 31.3 0 59.6 13 79.8 33.9z"/></svg>