<svg fill="#ffffff" xmlns="http://www.w3.org/2000/svg" width="405.3" height="248.5" viewBox="0 0 405.3 248.5">
  <path d="M346 248H159a65 65 0 1124-126 83 83 0 01166 6v2a59 59 0 01-3 118zM159 132a50 50 0 000 101h187a44 44 0 10-4-88 7 7 0 01-8-8v-9a68 68 0 00-136 0v5a7 7 0 01-11 7c-9-5-18-8-28-8z"/>
  <path d="M74 163H59c-32 0-59-27-59-60v-1c0-30 23-55 53-57 10-1 21 1 30 6a83 83 0 01141-19 8 8 0 01-12 9 68 68 0 00-50-26c-31-1-59 19-68 50a8 8 0 01-12 4c-8-7-18-10-28-9-22 1-39 20-39 42v1c0 25 20 45 44 45h15a8 8 0 010 15z"/>
</svg>
