<svg xmlns="http://www.w3.org/2000/svg" id="Layer_1" data-name="Layer 1" viewBox="0 0 899 600"><defs><style>.cls-1{fill:#d00}.cls-2{fill:#ffce00}.cls-5{stroke:#000}.cls-5,.cls-6{fill:#ffc709}.cls-5{stroke-width:2.81px;stroke-miterlimit:10}</style></defs><path d="M0 0h899v600H0z"/><path d="M0 200h899v400H0z" class="cls-1"/><path d="M0 400h899v200H0z" class="cls-2"/><ellipse cx="450" cy="301.5" class="cls-2" rx="161" ry="157"/><path d="M566 301c0 65-52 117-116 117s-116-52-116-117 52-117 116-117 116 52 116 117z" class="cls-1"/><path stroke="#000" stroke-linejoin="round" stroke-width="2.6" d="M452 201l-51 2v30l51 3h6l42-6v-23l-42-6z"/><rect width="26.6" height="150.3" x="437" y="251.8" fill="#ffc709" stroke="#000" stroke-linejoin="round" stroke-width="2.8" rx="4.5"/><path d="M510 300a83 83 0 01-105 12l-11 15a102 102 0 00129-14z" class="cls-5"/><path d="M440 233l-73 135 83-107 83 107-73-135-10 13z" class="cls-5"/><path d="M451 202l-35 2-14 6v17l14 6 35 2h6l41-6v-21l-41-6z" class="cls-6"/><path fill="#ffc709" stroke="#000" stroke-linejoin="round" stroke-width="3.6" d="M450 229h0a12 12 0 0112 12h0a12 12 0 01-12 13h0a12 12 0 01-12-13h0a12 12 0 0112-12z"/><path fill="#ffc709" stroke="#000" stroke-linejoin="round" stroke-width="1.2" d="M455 241a5 5 0 11-5-5 5 5 0 015 5z"/><path stroke="#000" stroke-miterlimit="10" stroke-width=".6" d="M409 397a27 27 0 00-4 1c-10 1-17 7-41 13a82 82 0 01-26 2 2 2 0 01-2-2l-2-1a4 4 0 000 4 5 5 0 001 3c18 12 18 15 28 24 6 5 7 7 26 4 3 6 4 9 15 6l1 4c2 3 4 4 10 2 14-3 19-6 35-7 17 1 21 4 36 7 5 2 8 1 9-2l2-4c10 3 11 0 15-6 18 3 20 1 25-4 10-9 11-12 28-24a5 5 0 002-3 4 4 0 000-4l-3 1a2 2 0 01-1 2 82 82 0 01-27-2c-24-6-31-12-40-13-4-1-8-1-10 1l-7 12-15-4a83 83 0 00-28 0l-14 4-7-12-6-2z"/><path d="M349 427l13-2 13-3 4 6a45 45 0 013 7l-11 1-11 2-5-5-6-6zm43-1a84 84 0 00-12 3l6 11 12-3-3-5z" class="cls-1"/><path d="M360 438l11-2 12-1 2 5 3 5-8 1a38 38 0 01-7 0 11 11 0 01-7-2l-6-6zm26 2l12-3 2 6 3 8a30 30 0 01-5 1 7 7 0 01-5-1l-4-6-3-5z" class="cls-6"/><path d="M447 421a64 64 0 00-8 1l-16 5-16 5-10 3 5 12a94 94 0 0012-3l14-5a94 94 0 0114-3h16a94 94 0 0114 3l14 5a94 94 0 0012 3l4-12-10-3-16-5-15-5a64 64 0 00-9-1 38 38 0 00-5 0z" class="cls-1"/><path d="M448 436a57 57 0 00-13 1l-24 8-9 2a91 91 0 003 9c2 2 3 2 5 2a84 84 0 009-2l18-5a71 71 0 0126 0l17 5a84 84 0 009 2c2 0 4 0 5-2a91 91 0 004-9l-10-2-24-8a57 57 0 00-12-1h-4z" class="cls-6"/><path d="M551 427l-13-2-13-3-4 6a45 45 0 00-4 7l11 1 12 2 4-5 7-6zm-43-1a84 84 0 0111 3l-5 11-12-3 2-5z" class="cls-1"/><path d="M540 438l-11-2-12-1-2 5-3 5 8 1a38 38 0 007 0 11 11 0 006-2l7-6zm-26 2l-12-3-3 6-2 8a30 30 0 005 1 7 7 0 005-1l4-6 3-5z" class="cls-6"/></svg>