    <svg fill="#ababab" id="svg-weather-fog" xmlns="http://www.w3.org/2000/svg" width="348.541" height="348.541" viewBox="0 0 348.541 348.541">
      <path
        d="M10.119 190.135a7.5 7.5 0 01-7.5-7.5c0-39.424 32.074-71.499 71.499-71.499 9.67 0 19.126 1.934 27.897 5.661 3.336-47.22 42.821-84.62 90.875-84.62 50.235 0 91.104 40.869 91.104 91.104 0 .757-.012 1.526-.036 2.308 30.84 1.365 56.94 24.786 61.315 55.547a7.5 7.5 0 11-14.85 2.112c-3.464-24.355-24.663-42.722-49.31-42.722-1.378 0-2.836.075-4.591.235a7.497 7.497 0 01-8.131-8.359c.405-3.388.602-6.372.602-9.121 0-41.964-34.14-76.104-76.104-76.104s-76.104 34.14-76.104 76.104c0 1.609.122 3.273.25 5.034l.038.523a7.498 7.498 0 01-11.645 6.779 56.21 56.21 0 00-31.313-9.482c-31.153 0-56.499 25.345-56.499 56.499a7.496 7.496 0 01-7.497 7.501zM341.041 223.954H7.5a7.5 7.5 0 010-15h333.541a7.5 7.5 0 010 15zM185.948 270.159H7.5a7.5 7.5 0 010-15h178.448a7.5 7.5 0 010 15zM341.041 270.159h-114.27a7.5 7.5 0 010-15h114.271a7.5 7.5 0 11-.001 15zM341.041 316.364H99.226a7.5 7.5 0 010-15h241.815a7.5 7.5 0 010 15zM62.483 316.364H7.5a7.5 7.5 0 010-15h54.983a7.5 7.5 0 010 15z"
      />
    </svg>
