    <svg fill="#ababab" id="svg-weather-haze" xmlns="http://www.w3.org/2000/svg" width="512" height="512" viewBox="0 0 512 512">
      <path
        d="M502.715 236.915c-7.241-10.349-18.158-16.048-30.738-16.048h-15.889l-6.003-55.197c-1.969-18.149-.599-20.264 5.516-26.287 2.303-2.264 4.89-4.517 7.629-6.901 14.886-12.961 33.413-29.092 35.936-70.343A10.001 10.001 0 00486.71 51.84c-5.913 1.51-11.342 2.972-16.133 4.262-34.705 9.348-44.031 11.86-77.656-8.868-54.072-33.338-102.488-44.917-148.017-35.399-38.662 8.083-66.846 29.639-89.493 46.958-1.976 1.511-3.889 2.974-5.752 4.384-18.381-5.228-37.027-2.956-53.045 6.575-19.066 11.346-32.538 32.146-36.038 55.646-5.325 35.907-5.669 49.498-5.691 95.468H40.023c-12.581 0-23.497 5.699-30.738 16.048C3.297 245.472 0 257.009 0 269.4c0 28.244 17.485 58.261 49.888 58.261h8.254c7.209 33.414 26.079 68.631 52.754 98.855.252.319.518.626.806.912 10.416 11.693 21.986 22.631 34.513 32.395a9.954 9.954 0 006.141 2.113 9.983 9.983 0 007.894-3.853c3.395-4.356 2.616-10.64-1.74-14.035-10.738-8.369-20.712-17.636-29.767-27.497v-72.387c0-.087.006-.141.004-.152.107-.153 1.132-1.455 5.608-2.883l107.342-34.438c12.03-3.848 16.575-3.848 28.597-.003l107.366 34.445c4.666 1.489 5.574 2.858 5.585 2.858a.969.969 0 01.011.172v72.215c-23.408 25.539-52.472 46.612-83.122 57.988-16.518 6.147-30.542 9.01-44.135 9.01-6.293 0-12.663-.621-19.474-1.898-5.431-1.02-10.654 2.557-11.672 7.985s2.557 10.654 7.985 11.672c8.041 1.508 15.616 2.241 23.16 2.241 16.049 0 32.29-3.262 51.103-10.263 39.496-14.66 77.066-43.379 105.789-80.869 20.741-27.072 34.944-56.686 40.969-84.585h8.252c32.403 0 49.888-30.018 49.888-58.261.001-12.389-3.296-23.926-9.284-32.483zM49.888 307.662C27.959 307.662 20 284.78 20 269.4c0-8.327 2.014-15.792 5.672-21.02 3.538-5.056 8.232-7.514 14.352-7.514h14.86v57.916c0 2.927.129 5.892.344 8.878h-5.34zm58.855 84.021c-16.997-24.26-28.467-50.386-32.372-74.884-.035-.408-1.487-12.535-1.487-18.015v-26.055l34.211 67.52a21.778 21.778 0 00-.352 3.917zM388.717 324a43.508 43.508 0 00-4.963-1.914l-107.359-34.443c-16.01-5.12-24.778-5.121-40.798.003l-107.335 34.436a45.048 45.048 0 00-4.983 1.91l-46.113-91.011c25.769-23.952 44.741-32.357 73.338-40.391 6.288-1.767 12.775-2.807 19.31-2.173 6.192.6 12.181 2.49 18.118 4.254 4.021 1.195 8.047 2.375 12.105 3.438 97.081 25.379 135.889 29.885 213.207 38.862 5.914.687 12.064 1.401 18.48 2.152zm46.91-7.168c-3.952 24.788-15.602 50.786-32.371 74.685v-47.351c0-1.14-.096-2.459-.368-3.884l34.228-67.553v26.055c.384 8.568-1.449 17.571-1.489 18.048zm-5.425-149.003l5.616 51.635c-7.067-.829-13.804-1.611-20.267-2.361-76.39-8.869-114.732-13.32-210.452-38.344-7.923-2.074-15.684-4.773-23.665-6.625-7.575-1.757-15.292-2.387-23.031-1.498-4.503.518-8.948 1.473-13.309 2.698-26.879 7.552-46.815 15.787-70.188 35.026.117-35.134.85-48.978 5.454-80.022 2.624-17.616 12.524-33.092 26.483-41.399 8.695-5.174 22.91-9.94 41.247-3.26a10.004 10.004 0 009.37-1.356c3.263-2.413 6.585-4.954 10.103-7.644C211.219 41.292 271.01-4.435 382.425 64.258c40.979 25.261 56.312 21.131 93.353 11.155l1.649-.444c-4.559 22.601-16.106 32.655-27.331 42.429-2.842 2.475-5.782 5.034-8.524 7.729-13.09 12.896-13.517 22.914-11.37 42.702zm31.91 139.833h-5.333c.217-2.995.337-5.958.337-8.878v-57.916h14.86c6.119 0 10.813 2.458 14.352 7.514 3.658 5.227 5.672 12.692 5.672 21.02 0 15.378-7.959 38.26-29.888 38.26z"
      />
      <path
        d="M172.404 253.408c-5.523 0-10 4.477-10 10v11.31c0 5.523 4.477 10 10 10s10-4.477 10-10v-11.31c0-5.523-4.477-10-10-10zM339.596 253.408c-5.523 0-10 4.477-10 10v11.31c0 5.523 4.477 10 10 10s10-4.477 10-10v-11.31c0-5.523-4.477-10-10-10zM195.246 467.199c-4.939-2.47-10.947-.468-13.417 4.472s-.468 10.947 4.472 13.417l.057.028a9.92 9.92 0 004.447 1.055 9.995 9.995 0 008.941-5.542c2.47-4.939.44-10.96-4.5-13.43z"
      />
    </svg>
