<svg version="1.1" id="Capa_1" xmlns="http://www.w3.org/2000/svg" x="0" y="0" viewBox="0 0 512 341.4" xml:space="preserve"><style>.st1{fill:#d80027}.st3{fill:#ffda44}</style><path fill="#f0f0f0" d="M0 0h512v341.3H0z"/><path class="st1" d="M0 42.7h512v42.7H0zM0 128h512v42.7H0zM0 213.4h512v42.7H0zM0 298.7h512v42.7H0z"/><path fill="#0052b4" d="M0 0h256v183.8H0z"/><g><path class="st3" d="M140.9 134.1c-23.3 0-42.2-18.9-42.2-42.2s18.9-42.2 42.2-42.2c7.3 0 14.1 1.8 20.1 5.1-9.4-9.2-22.2-14.8-36.3-14.8C96 40 72.8 63.3 72.8 91.9s23.3 51.9 51.9 51.9c14.1 0 26.9-5.7 36.3-14.8-6 3.3-12.8 5.1-20.1 5.1z"/><path class="st3" d="M152.8 62.2l7.5 15.7 16.9-3.9-7.6 15.6 13.7 10.8-17 3.8.1 17.4-13.6-10.9-13.5 10.9v-17.4l-16.9-3.8L136 89.6 128.4 74l16.9 3.9z"/></g></svg>