<svg version="1.1" id="Capa_1" xmlns="http://www.w3.org/2000/svg" x="0" y="0" viewBox="0 0 512 341.3" xml:space="preserve"><style>.st0{fill:#0052b4}.st1{fill:#d80027}.st2{fill:#f0f0f0}</style><path class="st0" d="M0 0h512v341.3H0z"/><path class="st1" d="M425.3 148.4l3.4 10.5h11l-8.9 6.4 3.4 10.4-8.9-6.4-8.9 6.4 3.4-10.4-8.9-6.4h11zM386.1 223.5l5.1 15.7h16.4l-13.3 9.6 5.1 15.7-13.3-9.7-13.3 9.7 5.1-15.7-13.3-9.6H381zM387.6 100.7l4.2 13h13.7l-11.1 8.1 4.3 13-11.1-8.1-11.1 8.1 4.2-13-11.1-8.1h13.8zM349.9 148l5.1 15.6h16.4l-13.3 9.7 5.1 15.6-13.3-9.6-13.3 9.6 5.1-15.6-13.4-9.7h16.5z"/><path class="st2" d="M256 0v30.6l-45.2 25.1H256V115h-59.1l59.1 32.9v22.8h-26.7l-73.5-40.8v40.8h-55.6v-48.6l-87.5 48.6H0v-30.6L45.2 115H0V55.7h59.1L0 22.8V0h26.7l73.5 40.9V0h55.6v48.6L243.3 0z"/><path class="st1" d="M144 0h-32v69.4H0v32h112v69.3h32v-69.3h112v-32H144z"/><path class="st0" d="M155.8 115L256 170.7V155l-71.8-40z"/><path class="st2" d="M155.8 115L256 170.7V155l-71.8-40z"/><path class="st1" d="M155.8 115L256 170.7V155l-71.8-40zM71.8 115L0 155v15.7L100.2 115z"/><path class="st0" d="M100.2 55.7L0 0v15.8l71.8 39.9z"/><path class="st2" d="M100.2 55.7L0 0v15.8l71.8 39.9z"/><g><path class="st1" d="M100.2 55.7L0 0v15.8l71.8 39.9zM184.2 55.7L256 15.8V0L155.8 55.7z"/></g></svg>