    <svg fill="#ababab" id="svg-weather-rain" xmlns="http://www.w3.org/2000/svg" width="347.485" height="347.485" viewBox="0 0 347.485 347.485">
      <path
        d="M282.676 233.765l-207.032-1.011c-39.389 0-71.463-32.074-71.463-71.499S36.255 89.757 75.68 89.757c9.67 0 19.126 1.934 27.897 5.661 3.336-47.22 42.82-84.62 90.875-84.62 21.701 0 42.724 7.759 59.193 21.848 16.285 13.931 27.179 33.186 30.674 54.218a7.5 7.5 0 01-6.169 8.628 7.497 7.497 0 01-8.628-6.169c-6.117-36.809-37.688-63.525-75.07-63.525-41.964 0-76.104 34.14-76.104 76.104 0 1.596.12 3.247.247 4.994l.041.567a7.5 7.5 0 01-11.645 6.776 56.208 56.208 0 00-31.313-9.482c-31.153 0-56.499 25.345-56.499 56.499s25.346 56.499 56.499 56.499l207.032 1.011c27.429 0 49.772-22.344 49.772-49.809s-22.344-49.809-49.809-49.809c-4.143 0-7.5-3.358-7.5-7.5s3.357-7.5 7.5-7.5c35.735 0 64.809 29.073 64.809 64.809s-29.071 64.808-64.806 64.808zM7.5 336.686a7.5 7.5 0 01-5.304-12.803l64.166-64.167a7.5 7.5 0 0110.607 10.606l-64.166 64.167a7.474 7.474 0 01-5.303 2.197zM84.166 336.686a7.5 7.5 0 01-5.304-12.803l64.167-64.167a7.5 7.5 0 0110.607 10.606L89.47 334.489a7.478 7.478 0 01-5.304 2.197zM160.833 336.686a7.5 7.5 0 01-5.304-12.803l64.167-64.167a7.5 7.5 0 0110.607 10.606l-64.167 64.167a7.474 7.474 0 01-5.303 2.197zM237.5 336.686a7.5 7.5 0 01-5.304-12.803l64.166-64.167a7.5 7.5 0 0110.607 10.606l-64.166 64.167a7.474 7.474 0 01-5.303 2.197z"
      />
    </svg>
