    <svg fill="#ababab" id="svg-weather-rain-and-sun" xmlns="http://www.w3.org/2000/svg" width="366.856"  height="366.856" viewBox="0 0 366.856 366.856">
      <path
        d="M251.613 124.996c.008-.422.012-.839.012-1.253 0-45.086-36.68-81.767-81.767-81.767-42.736 0-77.92 32.959-81.472 74.792a64.138 64.138 0 00-24.036-4.651C28.868 112.117 0 140.984 0 176.468c0 35.483 28.868 64.351 64.314 64.351l183.878.898h.037c32.207 0 58.409-26.202 58.409-58.409-.001-31.071-24.388-56.553-55.025-58.312zm-3.372 101.72l-183.891-.898c-27.211 0-49.35-22.138-49.35-49.35s22.139-49.351 49.351-49.351a49.103 49.103 0 0127.351 8.283 7.5 7.5 0 0011.645-6.778l-.036-.487c-.112-1.542-.219-2.998-.219-4.391 0-36.815 29.951-66.767 66.767-66.767s66.767 29.951 66.767 66.767c0 2.407-.173 5.024-.529 8.003a7.498 7.498 0 008.132 8.359c1.53-.14 2.801-.206 4.001-.206 23.936 0 43.409 19.473 43.409 43.408-.002 23.931-19.468 43.401-43.398 43.408zM291.4 34.266c-17.012 0-33.695 5.826-46.977 16.403a7.5 7.5 0 00-1.194 10.539 7.5 7.5 0 0010.539 1.194c10.791-8.594 23.804-13.137 37.632-13.137 33.336 0 60.457 27.121 60.457 60.457 0 21.422-11.508 41.446-30.034 52.257a7.5 7.5 0 003.787 13.979c1.284 0 2.585-.33 3.773-1.023 23.114-13.489 37.473-38.477 37.473-65.212 0-41.607-33.849-75.457-75.456-75.457zM71.888 252.6a7.5 7.5 0 00-7.5 7.5v18.741a7.5 7.5 0 0015 0V260.1a7.5 7.5 0 00-7.5-7.5zM126.175 252.6a7.5 7.5 0 00-7.5 7.5v18.741a7.5 7.5 0 0015 0V260.1a7.5 7.5 0 00-7.5-7.5zM180.462 252.6a7.5 7.5 0 00-7.5 7.5v18.741a7.5 7.5 0 0015 0V260.1a7.5 7.5 0 00-7.5-7.5zM234.749 252.6a7.5 7.5 0 00-7.5 7.5v18.741a7.5 7.5 0 0015 0V260.1a7.5 7.5 0 00-7.5-7.5zM71.888 298.85a7.5 7.5 0 00-7.5 7.5v18.741a7.5 7.5 0 0015 0V306.35a7.5 7.5 0 00-7.5-7.5zM126.175 298.85a7.5 7.5 0 00-7.5 7.5v18.741a7.5 7.5 0 0015 0V306.35a7.5 7.5 0 00-7.5-7.5zM180.462 298.85a7.5 7.5 0 00-7.5 7.5v18.741a7.5 7.5 0 0015 0V306.35a7.5 7.5 0 00-7.5-7.5zM234.749 298.85a7.5 7.5 0 00-7.5 7.5v18.741a7.5 7.5 0 0015 0V306.35a7.5 7.5 0 00-7.5-7.5z"
      />
    </svg>
