
<svg xmlns="http://www.w3.org/2000/svg" viewBox="0 0 1000 500"><path fill="#0f4b32" d="M0 0h1000v500H0z"/><path fill="#fff" d="M333 0h334v500H333z"/><path fill="#f3c200" stroke="#000" d="M-38-90l12 1 5 4 1 3v3l-3 4h-4l2 3 2 4v4l-2 2-3 1h-5l-5-2-5-2h-5l-4-1-2-1-1 5-2 4-6 2h-3l-3-1-5-3-5-1 2 7-1 8-4 2h-8l-9-5-5-8v-1l-1-8-1-7v-4l1-3 3-2 1-4 6-8 12 9 9 1 14-1 22-5z" transform="matrix(.542 0 0 .53682 569 255)"/><path fill="#ffd32a" d="M556 209l-1 2-1 2h-7l3-1 2-2h1zm-3 8l-1 2h-2l-5-1-2-1-3-3h4l5 2h2zm-18 4l-1 1h-3l-2-1-1-3v-1l3 2h2z"/><path fill="#f3c200" stroke="#000" stroke-width=".5" d="M471 203l-4 2-4 1h-6l-4-2-4-3v-3l-2-6-3 7v3l-3 1-1 3v3l3 3-4 1-3 3-1 3 3 3h5l1 3v3l2 2 2 3h2v5l2 2 3 1 22 1 7-21z"/><path fill="none" stroke="#000" stroke-width=".5" d="M471 207h-1l-3 2-4 1-4 2m3 3l5-4 6-3m-8 8l4-2 4-2 3-2m-8 10l2-3 4-2 3-2m-4 8l3-2 2-2 1-1m-9 8l-2 3-1 3-2 6-1 3v3m-1-23l-2 3-4 5-3 3-3 4m7-18l-8 3-6 3m4-11l-3 1h-2"/><path fill="#ffd32a" d="M448 201l-1 1-1 1-2 1-2 4 1 2h2l3-1h11l3-1 1-1h-9l-4-2-1-1-1-3zm-3 13h-3l-1 1-2 3 1 2h3l6-3 4-2 4-2-2-1-4 1-3 1zm13 3l-4 2-2 1-3 2v7l1 2 3-2 3-5 3-5zm8 4l-2 1-2 2-4 5-3 2v2l2 1h5l2-1 1-4 1-3v-5zm7 3l-1 2-3 3v4l1 1h1l1-3 1-7z"/><path fill="#0f4b32" stroke="#000" stroke-width=".5" d="M444 202l-2-4-1-2-3-3-6-3-7-3-3-3-2-2v-3l1-1 3-1 3 1-4-2-3-1-3-2v-2l1-3h2l3-1 2 1 2 1 2 2v-3l2-3 1-1 2 1 3 3v6l3-5 4-5 4-3v-8l-2-3 2-4 7 1 2 6v7l-2 4-1 3v2l1-1 3-2 3 1v5l2-2 2-2h4l2 1v5l-2 4-3 2-3 1-1 1 1 1 2 2 1 2v2l-2 2-4 2h-8l-1 2c-3 2-3 3-4 5l-3 2z"/><path fill="none" stroke="#000" stroke-width=".5" d="M423 173l3 1 4 3 6 6 5 5 3 5 2 5v-7l-1-3v-7l1-5 2-5 1-4 1-5 2-2 1-4v-3l-1-2-1-1m15 23l-3 5-4 2-4 3-3 5-6 10"/><path fill="#0f553c" d="M426 179h-2l-2 2 2 2 2 1 5 2 4 1 3 3 3 2v-2l-5-4zm33 13l2-1 1-2 1-3-1-2-3-1-3 3-4 4-1 2 4-1 4 1zm-2-24l-3 2-3 6-2 5-1 6v2l2-5 4-5 3-2 3-5-1-3zm-23-1h-2l-1 2v5l3 3 1 2v-9zm10 1l-3 4-4 6 2 5 3 3 1 3v-8l2-6v-4l3-6z"/><path fill="#f3c200" stroke="#000" stroke-width=".5" d="M442 134l1 2 1 3 3 3 2 2s2-1 3 1l3 3 2 3-3-3-3 1-3 2-2 3-1 3v3l-3 3-2 1h-3l-1-2-1-2v-3l-2 3-2 3-4 2h-3l-1-3v-4l-3 2-4 1h-3l-3-2v-2l2-3 2-1h-2l-2-2-2-3v-2l-1-3v-5l3-3 4-2v3l-3 2v5l1 3 2 1 2 1 3-1-2-1 1-3 1-1 3-1 3 1 3 1 2 1h1l-3-1-2-2-1-1 2-3v-1h3l2 2a136 136 0 005 4l-2-2v-3l1-2h5z"/><path fill="none" stroke="#000" stroke-linecap="round" stroke-width=".5" d="M429 158l1-2 3-4 3-2 2-1 6-2 6-2 4 1m-29-1l2 1 3 1 3 1a96 96 0 016 0m-21 8l3-2 5-2 4-1 4-2h4m-22 2h10l4-1"/><path fill="#ffd32a" d="M442 136h-4v4l3 5h2l4-1-3-2-1-2-1-1zm-13 1l-1 2v1l1 1 2 1 4 2 1 2h2v-1l-3-2-3-2-2-3zm-7 5l-2 2v1l2 1 2 2 3 1-3-2v-2h1l1-1-3-1zm-10 7l3 2v-1h2l-4-2-2-2-1-1v-2l-1-2 1-3-2 1v3l1 4 2 3zm6 4h-3l-1 2-1 2v1l3 1h2l3-2 2-1-3 1-3 1-1-1 1-2 1-2zm10 0l-1 1-1 2v5l1 1 3-1v-2l4-5-3 2-1 3h-3zm10-1l-1 3v5l3 2 2-3 2-4v-4l3-2 1-2-4 2-1 1-1 4-2 2h-1l-1-4z"/><path fill="#f3c200" stroke="#000" stroke-width=".5" d="M412 125l-1-2-1-3 1-4h1l1-2 2-1 2-1v1l3-1 1 2 2-1 1 2v1h4v1h2l1 1 1 2v1l1 2h0v2l-1 1v3l-1 1-1 2-3 1h-1l-2-1-2-1z"/><path fill="none" stroke="#000" stroke-width=".5" d="M412 120v1l1 1v1h0v2h1m1-8l-1 1v3l1 1v4m3-9v8l-1 1m1 1l1-2v-1l1-2 1-1 1-2m-2 8h1l3-2 2-3v-1l1-2m1 5l-1 2-2 1-2 1-3 1v-1m1 2h7"/><path fill="#f3c200" stroke="#000" stroke-width=".5" d="M418 136l2-2 1-3v-3l-2-2-3-1h-3l-3 1-2 3-1 3 1 3 2 2 3 1 4-1z"/><path fill="#ffd32a" d="M413 128l2-1h2l1 1v1l1 2-1 2-3 3h-4l-1-2v-2zm3-13l2-1v1l-1 2-1 2v3-7zm8 2h1v3l-2 3-2 1 1-2 1-3zm-3-2l1 2-1 1-1 2v-4zm-8 1v3-2zm17 3v3l-3 2-3 2 2-3 2-2v-1l2-1zm1 4v3l-2 2h-3l2-1 2-1 1-3zm-1 7v1l-2 1h-1l-2-1z"/><path fill="#b3b3b3" d="M472 183l-3 4-3 5v8l2 3 5 5 3 5 2 3v3l-2 5-1 3-1 3v6h32l3-8 4-7 5-4h4l-2-2h-1l-2-2-2-2h-3l-2-2v-4l-1-10-3-7-6-5-4-1c-2-1-24 1-24 1z" overflow="visible"/><path d="M466 195l1 1 1 1 4-1 8-2 10-5-11 7-8 3-5 1-2-1 2-4z"/><path fill="none" stroke="#000" stroke-width=".5" d="M472 183l-3 4-3 5v8l2 3 5 5 3 5 2 3v3l-2 5-1 3-1 3v6h32l3-8 4-7 5-4h4l-2-2h-1l-2-2-2-2h-3l-2-2v-4l-1-10-3-7-6-5-4-1c-2-1-24 1-24 1z"/><path fill="#a4a4a4" d="M498 228v-3l1-4v-4l-1-4 4 8 1 2-1 1zm-7 0v-10l-1-4-1-5-1-5-2-7-1-2-10 4-8 2 5 3 7 6 6 6 3 5z"/><path fill="#666" stroke="#000" stroke-width=".5" d="M466 193l-4 3-2 3-1 3h2l6-1 5-1 5-2 8-3 7-4-1-3-5 3-5 3-5 2-6 2-3 1h-1z"/><path fill="none" stroke="#000" stroke-width=".5" d="M483 229l-1-3-1-3-2-6m34-6l-3 1 1 2-2 3h0m-17-26l-2-5 9-4"/><path fill="#ccc" stroke="#000" stroke-width=".5" d="M498 186v1c-1 1-2 0-2-1l1-1 1 1zm-3 1l-1 2-1-1v-2l2 1zm9 17v1c-1 1-2 0-2-1l1-1 1 1zm2 3v2l-2-1 1-2 1 1zm2 4v2l-2-1 1-2 1 1z" color="#000" overflow="visible" style="marker:none"/><path fill="#666" stroke="#000" stroke-width=".5" d="M489 234h1v3h-2 0v-1h0v-2l1-1z"/><path d="M506 236l3-9 2-4 4-3 4-3h4l2 3 1 4v12z"/><path fill="#666" stroke="#000" stroke-width=".5" d="M487 228h-2v1l-1 2v2l1 2h1l1 1 1-1 1-1v-4l-1-1-1-1zm-1 2h1v1h0v3l-1-1v-2h0zm19 6v-5l4-7 4-5 4-2 3-1h3l2 1 1 3 1 5-1 11h-1v-15l-3-3h-2l-2 1-3 2-3 3-3 5-1 5v2z"/><path fill="#ccc" d="M470 188l-1 3-1 2v1h5l4-1 5-2-2-1-4 1-3 1h-3zm45 24l-2 1-1 2-2 3-3 3-2 4-2 4 1 1 3-5 2-4 4-4 3-1 2-1zm-36 9l-1 5-2 4-1 3v1h6l1-1-1-4-1-3z"/><path fill="#9b7735" d="M562 241l-1-2-1-4-2-3-1-3-2-3c0-2-1-2-2-3-1-2-5-1-5-1h-2l-1 2-1 2-3 2-4 3-1 3-3 1-4 2s-2 2 1 2l5-1 5-1 2-2 2-2 2-2 3-1h2l1 2v7l1 6 1 5 2 4 2 2c1 0 2 2 2 0 1-1 2-1 2-4 1-4 2-6 1-8l-1-3z"/><path fill="#86662e" d="M559 247l-2-1-3-2-2-4v-1 5l2 4 1 5 3 3 1 1zm-24-11l2-2 4-1 4-2 2-2 2-3v1l2 1 1 2v2l-1-2-2-1-3 3-4 2-1 2z"/><path fill="#ab8540" d="M562 242l-2 1-2-1v-2l-1-3-1-2v-7l1 3 2 3 2 4v2l1 1zm-7-16h-3l-2-1v-2l-2 1-1 2-1 1-3 1-2 2-3 3-1-1v-1l2-2 3-2h1l1-2 2-3h7l2 4z"/><path fill="none" stroke="#000" stroke-width=".5" d="M562 241l-1-2-1-4-2-3-1-3-2-3c0-2-1-2-2-3-1-2-5-1-5-1h-2l-1 2-1 2-3 2-4 3-1 3-3 1-4 2s-2 2 1 2l5-1 5-1 2-2 2-2 2-2 3-1h2l1 2v7l1 6 1 5 2 4 2 2c1 0 2 2 2 0 1-1 2-1 2-4 1-4 2-6 1-8l-1-3z"/><path fill="#146146" d="M572 394l11 2h5l8-1 4-2 5-1 3-1h3v-2l2 1 1-2c0-3 1 0 1 0v-3h2v-1l-1-2-3-2v-1l-2-1v-1l-1-1-2-1h-2v-1l-6-2-3-4h-3l-1-2h-2l-1-2-1 1-5-5-2-1-5-2-1-2h-2v-1h-3v-2h-3v-1h-2v-1l-3 1v-1l-3 2v-2l-3 2v-2l-4 3v-2h-2l1-1-1-1h-2l1-1-1-1-4-1v-1h-4l-2-2-4-1-7-2-3-1h-55l-4 1-7 2-4 1-2 2h-4v1l-4 1-1 1 1 1h-2l-1 1 1 1h-2v2l-4-3v2l-3-2 1 2-4-2v1l-3-1 1 1h-3v1h-2v2h-3v1h-2l-2 2-4 2-3 1-4 5-2-1-1 2h-2l-1 2h-3l-3 4-5 2v1h-3l-2 1-1 1v1l-2 1v1l-3 2-1 2v1h2v3s1-3 1 0l1 2 2-1v2h4l3 1 4 1 5 2 7 1h5l11-2h75z"/><path fill="#0f553c" d="M405 395l-11-2-8-2h-2l-1-1c0-1 0-2-1-1l-1 1v-1l-1-2-1-1-1-1c0-2 0-3 2-4l1-1 2-2 1-1 1-1 2-1h2l2-2c2 0 4-2 6-4l2-1 1-1 2-1 2-1h1l3-3 4-2 2-2h1l-2 2c-4 4-4 4 1 3l4-1v3h2v1c-1 3 0 3 2 1h2l-1 2-1 6c0 1 1 1 3-1 2-1 2-1 2 1l2-1 2-1c0 1 2 1 4-1l2-2 1 2 2 3 2-1h1l1 2c1 1 2 0 3-1h1l3 2 2 3 3-4c1-2 2-3 3-2l3-2 4-1 3-1 3 2 1 1 2 1 2 1 6 1c4 1 6 1 9-1 3-1 4-2 6-1h7l5-4h1c1 0 2 0 2-4l1-2 1 2 2 4 2 1 3 1h3l2-1 2-1v-2l2 2c3 2 3 3 6 3l3 2 3 2h3l2-3 1-2c1-1 3 1 5 4l4 5c2 2 5-3 5-12v-3h1v-4l1 2 2 2v-4l2 1 1 2 1-2v-1l4 2 2 1 2 2 1 3c1 1 2 0 2-2v-2l1 1c1 2 2 2 2-1v-3h2l2 2h1l2 1 2 1 1 1 2 1c3 3 4 4 6 4l3 2h1c2 0 4 1 3 2l1 1 2 2 2 1 2 4h-1l-1 1v1c-1-1-1 0-1 1 0 2-1 2-2 1s-1 0-1 1v1h-2l-7 2-15 2h-9l-5-1H420l-5 1h-10zm64-56l8 8 11 7 11 5 10-2 10-7 8-7 3-3-7-2h-48z" color="#000" overflow="visible" style="marker:none"/><path fill="#0f553c" d="M404 395h-2l-11-3-7-1h-1v-1c0-1 0-2-1-1s-1 1-1-1l-1-1-1-1-1-1v-1c0-1 0-2 2-3l2-2c3-3 4-4 6-4h1l3-2 4-3c1-2 2-2 3-2l1-1c2-1 2-1 0 2l-1 6c1 2 1 2 4 0l2-1v1h2l2-1 2 5 2 3c1 0 2 0 2 2v2h3l3 1h15c2 2 2 2 4 0l2-1 3 2c3 2 4 2 5 0l2-1h3l2-2 5 5c3 3 4 3 5-1 1-3 1-3 2-2 2 1 2 1 3-1l2-1 1 1c2 2 3 2 5 0l2-1 2 1 4-1h17l4-1h5c4-1 5-2 6-5v-2l3 2 4 2c2 0 3 1 4 3 1 1 2 2 3 1l2 1 3 2 2-1 6-1h3v-1l2 1h2l1 1 3 3 2-2 1-1h1l1-1 4-6c1-3 1-4 3-3 1 0 2 0 0-6l2 1 2 3v-5c0-3 0-3 3 0 3 5 4 5 5 5l2 2c2 2 3 2 3 1h2c2 0 3 0 3-2v-1l4 2h1l2-2 3-2 4 2 3 1h1v1l1 1 2 2 2 1 1 3v1l-1 1v1l-1 1-1 1h-2v2h-2l-7 2a69 69 0 01-9 2 92 92 0 01-18-1h-79a7748 7748 0 00-92 1z" color="#000" overflow="visible" style="marker:none"/><path fill="#0f4b32" d="M386 376h-1l-2 2-2 2-1 1-1 1-1 1v2l1 1 1 1 1 1c0 2 0 2 1 1s1-1 1 1v1h2a14 14 0 015 1l5 2h5l2 1h12v-1l-7-1c-4 1-4 1-4-1v-5c0-5-1-5-3-4-3 0-5-1-5-2l-1-2c-1-4-1-4-4-3l-2 1-1-1h-1zm225 1l-1 1-2 1-2 2-4 1h-3l-3 2-1 1h-3l-5 1-3 1-7-4-2-2-1 4-1 5s-3 3-5 3c-1 1-1 1 2 1l8 1a81 81 0 0014 0 153 153 0 0017-4h2v-2h3v-2h1v-1l1-1v-1l-1-2-2-3z" color="#000" overflow="visible" style="marker:none"/><path fill="none" stroke="#000" stroke-linecap="round" stroke-linejoin="round" stroke-width=".5" d="M572 394l11 2h5l8-1 4-2 5-1 3-1h3v-2l2 1 1-2c0-3 1 0 1 0v-3h2v-1l-1-2-3-2v-1l-2-1v-1l-1-1-2-1h-2v-1l-6-2-3-4h-3l-1-2h-2l-1-2-1 1-5-5-2-1-5-2-1-2h-2v-1h-3l-1-2h-2v-1h-2v-1l-3 1v-1l-3 2v-2l-3 2v-2l-4 3v-2h-2l1-1-1-1h-2l1-1-1-1-4-1v-1h-4l-2-2-4-1-7-2-3-1h-55l-4 1-7 2-4 1-2 2h-4v1l-4 1-1 1 1 1h-2l-1 1 1 1h-2v2l-4-3v2l-3-2 1 2-4-2v1l-3-1 1 1h-3v1h-2v2h-3v1h-2l-2 2-4 2-3 1-4 5-2-1-1 2h-2l-1 2h-3l-3 4-5 2v1h-3l-2 1-1 1v1l-2 1v1l-3 2-1 2v1h2v3s1-3 1 0l1 2 2-1v2h4l3 1 4 1 5 2 7 1h5l11-2h75zm-177-7l-1 1h-1l-1 1v-1m0-2l-2 1 1 1 1-1m4-13h-2l-2 1s0 0 0 0l1 1 2 1-3-1-2 1h-2l1 1 2 1h-3l-2 1-1 1h4l-2 1-1 1-1 1 1 1 1-1h1l-1 1v2l1-1h2m11-19v2m-1-1v1l1 1m-2-2v1l1 1m-13 12h-2l-1 1m2-4h-2v1m3-2h-3m1 3h-1l-1 1m3 1h-1l-1 1m-5 1l1-1h0m0 3l1-1h1m-1-4h-1l-2 1m64-25l1-1-1-2-1-1m3 5v-2l-1-2v-1h0m-6-2l2 1v1l1 2m-5-4l1 1 1 2m-6-3l2 1 1 1m-5-2l1 1 1 1m-5-2l2 1v1m-4 0l1 1 1 1m-5-1l1 1h1m-5 0h2l1 1m-4 0h2l1 1m25-4l-1-1-1-1h-2m6-1l-2-1h-2m7-1h-4m7-1l-1-1h-3m2 2l-1-1h-2m1 3l-1-1h-1m-1 4l-1-2h-1m1 3v3m-7 14l-2-1-2-1c-1 0 0 0 0 0l2-1h3m1-1h-1l-2-2-3-1h3a137 137 0 004 0l2 2m4-2l-1-2-2-1-2-1h-2l1 1 1 2 1 1 1 2m6-1v-4l-1-1-1-2-1-1v7m6 1v-1l2-1 2-1h1l-2-1h-2l-2 1-1 2v1h-1m5 2l1-1 1-1h2l-2-1h-2l-1 1-1 1m7 8h-3m-1 0l2-1h2m1 0l-1-1-3-1h3l2 1m1 0l-1-2-2-2h2l2 1 1 1m1 0l-1-2-1-2v-1h1l2 2 1 2v2m3 0h0v-3l-1-1v-2l-1 2v4m4 2l1-1 2-1h2l-3-2-2 1-1 1v1m3 4l1-2h1l1-1-2-1-1 1-2 1m-12-15l-1-3-2-1 1 1h2l2 1m0-1l-1-2-2-2c-1-1 1-1 1-1l3 2 1 2 1 1m0-2l-1-2v-4l-1-2 3 2 1 2v2l1 2m1-1v-6l1 2 1 1 1 2-2 2m1 1l1-2 3-1 2 1-2 1-2 1v1m1 0h1l2-1 2 1h-2l-1 1m1 10l-1-1-2-1-2-1h5l1 1 1 1m0-1v-1l-1-3-1-1 2 1 2 1 1 1v2m1-1v-4a486 486 0 003 3v2l-1 1m2-1l1-2v-4l1 2v3l-1 2h-1m1 1l2-1 2-1h2l-2 1-1 2h1l1 1m-23-25v-2l-1-2-1-2m5 6l-1-3-1-2-2-1m8 8l-1-2-2-4m38 16l-2-3-1-1h3l2 2m0-2v-2l-1-2 4 2v3m1-1l1-2-1-4 2 2 1 3-1 2m1-1l1-1 1-1 1-2v-2l1 4-1 2v1m1 0v-1l3-2h3l-2 1-1 2-2 2m2-1l2-1h1v2s0 0 0 0h2m1-2l-1-3-1-1 5 4m0-1v-3l-2-2 3 1 1 3h0m1 0v-5l2 2v3l2-2h1l-1 2v2l2-2 2 1-2 1-1 2 1-1h3v1l-1 2h1m-21-9l-1-3-2-1 5 1 1 3m1-2l-2-2 3 1 1 1v2m16 2h-3l-1 1m2-3h-4m0-3l-2 1-1 1m12 5h-3v1m6-2l-2 2v1m5-3l-1 1-1 3m5-4l-1 1-1 1m5-3l-2 2v2m4-3l-2 2v2m5-2l-2 1-1 1m6-1l-2 1-1 1m-65 21l-1-2-3-1 4-1 3 1-2-2-2-2h5l1 2m1-1l-1-2v-4c2 0 3 2 3 2l1 3v1m10 3l2-2h-2l-3 1 2-5-3 2-2 2 1-5-2-4-1 4-1 4m11 6l3-3h-3l-2 1-1 1m1-6l-1-2-1-1 2 1 2 1-2-3-3-1h4l2 2-1-3-1-3 4 1 2 2v-2l-2-3 3 1 1 2v2m1 3l1-3v-4c-1-1 0 0 0 0 2 1 2 3 2 3l-1 4 2-2 4-1-2 2-2 3m1 0l2-1h2l-2 2v1h4m1-3l-3-3 3 1-1-2-2-1 3 1 2 2m0-2l-2-3c-2-1 0-1 0-1l3 1 1 3m1-1l-1-3-1-1 4 2 1 2 1-2v-3l2 3v3l1-1m-15 14l-4-4 4 1 1 2 1-2-2-2 4 2 1 2 1-5 1 2 1 3 1-1h2l-1 2 4-1-2 2v1m55 9l-3-2-4 1m10-1l-3-1h-3m7-1l-3-1h-3m8 0l-3-2h-3m-1 8l-3-1-4 1m2 1h-3l-3 1m12-15l-4 1-1 1m-17 1l1-1-1-2c1-2 3-2 3-2m-6 5l2-2-1-3 2-1m-4 5l1-3v-2l1-1m-3 16l4 1v-3h1l5 2-2-4 3-1 3 1-3-4 4-2m-5-10l4 3-3 2 3 1-2 1m-190 5l-4-1-2 1m6 4l-4-2-2 1m6 3l-5-1"/><path fill="#9b7735" d="M438 241l1-2 1-4 2-3 1-3 2-3c0-2 1-2 2-3 1-2 5-1 5-1h2l1 2 1 2 3 2 4 3 1 3 3 1 4 2s2 2-1 2l-5-1-5-1-2-2-2-2-2-2-3-1h-2l-1 2v7l-1 6-1 5-2 4-2 2c-1 0-2 2-2 0-1-1-2-1-2-4-1-4-2-6-1-8l1-3z"/><path fill="#86662e" d="M441 247l2-1 3-2 2-4v-1 5l-2 4-1 5-3 3-1 1zm24-11l-2-2-4-1-4-2-2-2-2-3v1l-2 1-1 2v2l1-2 2-1 3 3 4 2 1 2z"/><path fill="#ab8540" d="M438 242l2 1 2-1v-2l1-3 1-2v-7l-1 3-2 3-2 4v2l-1 1zm7-16h3l2-1v-2l2 1 1 2 1 1 3 1 2 2 3 3 1-1v-1l-2-2-3-2h-1l-1-2-2-3h-7l-2 4z"/><path fill="none" stroke="#000" stroke-width=".5" d="M438 241l1-2 1-4 2-3 1-3 2-3c0-2 1-2 2-3 1-2 5-1 5-1h2l1 2 1 2 3 2 4 3 1 3 3 1 4 2s2 2-1 2l-5-1-5-1-2-2-2-2-2-2-3-1h-2l-1 2v7l-1 6-1 5-2 4-2 2c-1 0-2 2-2 0-1-1-2-1-2-4-1-4-2-6-1-8l1-3z"/><g stroke-width=".9"><path fill="#999" d="M436 359l1-2 6-2 6 2 1 2s2 2 1 3l-6 3-7-2-2-2z"/><path fill="#fff" d="M587 350l-2 2-2 2h-3l-3-1-5-1-3-2-3-2-1-1h-5l-2 2-2 4v4h3l2 1 4 1 3 2 6 2 4 1 6 2h3l5-4-2-7z"/><path fill="#c4c4c4" d="M562 358v-3l1-3 2-3 1-1-2-1-3 1h-1l-1 2-2 4 1 3h1zm18-4l2 2v1l1 2v2l-1 1-3 2 5 2 4-3 1-3-1-4-4-3-1 1z"/><path fill="none" stroke="#000" d="M-484 854l-3 3-4 2-4 1-5-2-7-3-6-2-4-3-3-1-5-1-2 1-3 2-4 7v4l1 2 2-1 2 1 4 1 5 3 5 2 10 3 7 2 8 3h6l8-6-4-12z" transform="matrix(.62527 0 0 .64119 890 -197)"/><path fill="#fff" d="M581 373h-1l-4-1-2-3-4-4-3-1-4-2h-4l-1-4-1-4 1-4 2-2 3-1h1-5l-1 1-2 2-1 3-1 3-1 4-1 2-1 1v7l2 1h8l1 1 3 3v2l14 1z"/><path fill="#c4c4c4" d="M560 362l-1-1-1 1-1 1-1 3-2 2-1 1-2 2h8l-1-1 1-2 1-1 1-3h2l1-1-1-1zm1 9h1l2-2 1-1 1-4 4 2 4 3h-2v1l-3 1h-1v1l-2 1-1 2-3-3z"/><path fill="none" stroke="#000" d="M-493 890l-2-1-6-2-4-4-7-6-5-2-6-3-5-1-3-5-1-7 2-6 3-3 4-1h3l-4-1h-4l-2 1-3 4-3 5-1 5-2 6s-2 0-2 2v3l-1 4v4l1 3 3 1 4-1 8 1 2 1 5 5v4h21z" transform="matrix(.62527 0 0 .64119 890 -197)"/><path fill="#fff" d="M522 375l45 1h10l2-1 2-1 1 2v1l-1 2-1 2-2 2-1 1v3l-2 2-1 1h-29l-5 1h-11l-10-1h-2l-2-2-1-6 8-7z"/><path fill="#c4c4c4" d="M581 373l-2 2-3 1h-2l1 1 1 2v2l-1 3-1 2-2 3-1 1h3l3-3v-3l4-5 1-2v-1l-1-3z"/><path fill="none" stroke="#000" d="M-589 893l72 1 7-1 5 1 4-1 4-1 2-1 2-1 1 3v2l-1 3-3 4-3 3-1 2-1 3-2 4-2 1-5 1h-24l-8-1h-9l-9 1h-36l-3-3s-3-8-2-10l12-10z" transform="matrix(.62527 0 0 .64119 890 -197)"/><path fill="#c4c4c4" d="M527 373l-1 1-4 2-4 4-2 3-1 3 1 3-3-3-2-4-2-2-2-2 1-2 4-5 8-3 7 5z"/><path fill="#999" d="M509 373h4l2 1 2 1 2 2 1 2 2-3 3-2 2-1-6-2-10 1z"/><path fill="none" stroke="#000" d="M-580 889l-2 2-6 3c-1 1-7 5-7 7l-2 4-2 4 1 5-5-5-3-6-3-3-1-1-2-3 1-3 7-8s11-5 12-4c2 0 12 8 12 8z" transform="matrix(.62527 0 0 .64119 890 -197)"/><path fill="#fff" d="M493 373h2l3 1h6l3-2h4l6-1h7l3 2v-3l-2-3-2-4-1-3-1-1h-3l-6-1h-29l-2 2-3 6 4 4zm91-7l2-2 2-1 1-2v-2l-1-3-3-2-1-2-3-2-2-1-2-2-1-3v-2l7-6 4 1v3l1 1 2 2 1 1 2 3v5l-1 3v7l-1 2-1 2h-3z"/><path fill="#c4c4c4" d="M488 358l-6 1-2 3v5l3 2h4l-2-1v-4l1-2zm19 15l2-2v-1l1-5 1-1v-3l-2-2h6l-1 2v1l1 2 1 2 3 2v3h-6zm15-2l1-1v-4l-1-1-2-4-3-2h4l1 1 3 6 1 3v4l-2-2z"/><path fill="none" stroke="#000" d="M-635 888l4 1 4 1h10l6-2 5-1 10-1 6-1 5 1 4 3v-4l-2-6-3-6-2-4-1-2-6-1h-55l-3 3-5 8 6 8z" transform="matrix(.62527 0 0 .64119 890 -197)"/><path fill="#c4c4c4" d="M493 372l-1-2-3-1-5-2-2-1-1-2v-2l2-3h2l-2-1h-1l-2 2-2 2-1 2-2 1-2 2v6l4 5h14l3-2v-2z"/><path fill="#999" d="M473 370h2l2 2 2-1 1-1v-1h1l3 2v1l-1 1v3l1 1-8-1-3-3z"/><path fill="none" stroke="#000" d="M-634 888l-3-3-5-2-7-3-4-2-1-3 1-3 2-5 3-1h-5l-3 2-2 4-3 3-3 2-2 3-1 4v5l8 7h22l4-3 1-3zm145-10l3-3 3-2 1-4v-2l-1-4-4-4-2-3-5-2-4-3-3-3-2-4 2-4 10-9 7 1v5l1 2 3 3 2 2 4 4v3l-1 5-2 5v4l1 7-1 4-3 2-4 1z" transform="matrix(.62527 0 0 .64119 890 -197)"/><path fill="#999" d="M591 333l-1 2-2 2-1 2-2 2v2l-2-2h-4l-3 2v-2l5-6 5-3 3-2 2 2z"/><path fill="#c4c4c4" stroke="#000" d="M-477 826l-2 3-3 4-3 3-2 3-1 3-3-3h-3l-3 1-4 2s-1 5-1 2l1-6 7-8 8-6 5-2 3 3z" transform="matrix(.62527 0 0 .64119 890 -197)"/><path fill="#fff" d="M425 376c3-1 65 1 65 1l1-1h2l1-1v-2l-1-1 2 2v3l-1 1-6 11-2 1h-60l-1-2-2-2v-7z"/><path fill="#c4c4c4" d="M492 376h-6l1 3v2l-1 5-1 2-2 2h3l2-1 6-11 1-2v-2l-2-3 1 3v1c-1 2-1 1-2 1z"/><path fill="none" stroke="#000" d="M-743 893c4-1 103 1 103 1h5l1-2v-3l-1-2 4 3v4l-1 3-11 17-3 1h-95l-3-2-2-4v-10z" transform="matrix(.62527 0 0 .64119 890 -197)"/><path fill="#c4c4c4" d="M436 360l4-2 4-1h2l3 1 1 2 1 1-1-3-4-3-2-1-2-2-4-3-3-1h-5l-5 2-6 8-1 4-2 4v5l-1 2v3l1 2h2a563 563 0 004 6l1 4 2 2h2l-1-2-1-1v-8l2-4v-2l1-2v-2z"/><path fill="none" stroke="#000" d="M-725 868l6-3 6-1h4l4 2 2 2 1 2-1-4-6-6-4-1-4-3-5-4-6-2h-8l-8 3-9 13-2 6-2 6-1 7-1 4v5l2 2 2 1 4 4 3 6 1 5 3 3h5l-3-2-1-3-1-2v-5l1-5 2-6 1-4 1-3 1-3z" transform="matrix(.62527 0 0 .64119 890 -197)"/><path fill="#999" d="M409 338v2l-1 1-1 2h-2v3h6l1-2v-3l-1-1-2-2z"/><path fill="#fff" d="M406 336l2-1 4-1h2l5 4 3 4 4 5 4 4 4 6 3 3 7 3 3-1 3-1v-2l1 3-1 3-4 2-2 1-4 2-4 1h-3l-4-2-5-3-3-3-3-3-5-6-2-1-3-2h-3l-2-3 1-7z"/><path fill="#999" d="M409 338v2l-1 1-1 2h-2v3h6l1-2v-3l-1-1-2-2z"/><path fill="none" stroke="#000" d="M-769 834v3l-1 3-2 1-3 1-1 4 2 1h5l3-1 2-2v-6l-1-1-4-3z" transform="matrix(.62527 0 0 .64119 890 -197)"/><path fill="none" stroke="#000" d="M-774 832l3-3 6-2 5 1 7 6 5 7 6 7 6 7 8 9 5 4 10 5 6-1 4-2v-3l2 5-3 5-5 2-5 2-5 4-6 1-6-1-5-2-9-5-5-5-5-5-8-9-3-2-5-2-4-1-4-4 2-10z" transform="matrix(.62527 0 0 .64119 890 -197)"/><path fill="#c4c4c4" d="M411 345l-1 2-3 3-1 2-1 3-2 2-1 1-1 1-2-1h-1v-3l2-6 2-6 1-4 3-3-1 2v5l2 1 2 1z"/><path fill="none" stroke="#000" d="M-765 845l-3 3-4 5-2 4-2 3-2 4-2 2-2 1-3-1h-1v-2l-1-3 4-9 2-10 3-7 5-4-2 3-1 6 1 2 3 2 3 2z" transform="matrix(.62527 0 0 .64119 890 -197)"/></g><path d="M426 352l-2 2v-4h-2v7h-2l-2-1a4 4 0 01-1-1v-1l-1 1v-1l2-2v4l2 1a1 1 0 001-1v-3l-1-1v-1l1-1 2-1 1 1 1 1v1h1zm-3 9l-2-2h2l4-4v-2l2 3-1-1-1 1-3 4h-1v1zm12 0l-2 2v-1h1v-1l-1-1-1-1-4 5-1 1 1 1h-1l-2-3 1 1 1-1 4-4v-1l-1-1h-1v1l-1-1 2-1zM431 378h2l6 7v-5l-1-1h-1v-1h3v1h-1v8l-6-7v5l1 1v1h1-3l1-1v-6l-1-1h-1zm14 0l3 1 1 4-1 3-3 1-3-1-1-3 1-4 3-1zm0 1l-2 1-1 3 1 3 2 1 2-1 1-3-1-3-2-1zm10 8l-3-7v7h1-3l1-1v-7h-1v-1h2l3 7 3-7h3v1h-2v6l1 1v1h1-4l1-1v-6l-3 7zm10 0h-4l1-1v-7h-1v-1h4v1h-1l-1 1v5l1 1v1zm0-9h2l5 7v-6h-1v-1h3v1h-1v8l-6-7v6l1 1h-3 1v-8h-1zm12 1v3h3v-1 2h-3v3h4v-1h1l-1 2h-7 1l1-1v-6l-1-1h-1v-1h7v2l-1-1h-1zM525 387h1v-8h-1 6l2 2v2l-1 3-3 1zm2 0h2l2-1 1-3-1-3-2-1-2 1zm11 0h-4 1v-8h-1 4-1l-1 1v6l1 1zm8-8v2l-1-1-2-1-2 1-1 3v2l2 2a3 3 0 002 0h1v-4h-1 3-1v4h-1l-2 1-4-2-1-3 1-2 2-2h2a4 4 0 012 0h1zm1 0h2l5 6v-6h-1 3-1v9l-6-7v6h1-3 1l1-1v-6l-1-1h-1zm15 6h-3l-1 1v1h1-3 1l1-1 3-7 3 7v1h1-3 1v-1zm0-1l-2-3-1 3z" font-family="Times New Roman" font-size="28" font-weight="400" letter-spacing="0" style="line-height:125%;-inkscape-font-specification:'Times New Roman,'" word-spacing="0"/><path d="M570 383a1 1 0 11-3 0 1 1 0 013 0zm-1-28a1 1 0 11-3 0 1 1 0 013 0zm7 3a1 1 0 11-3 0 1 1 0 013 0zm-3-4a1 1 0 11-3 0 1 1 0 013 0zm-2 5a1 1 0 11-3 0 1 1 0 013 0z" color="#000" overflow="visible" style="marker:none"/><path fill="#0f4b32" d="M500 365c50-19 50-67 50-67v-24H450v24s0 48 50 67z"/><path fill="#fff" d="M550 279v-43H450v43z" overflow="visible"/><g stroke-width="1.2"><path fill="#cf142b" stroke="#000" d="M-320 381l3 1 4 1 5-1 6-1s1-1-1-1l-2-1c-1-1-3-2-1-5 1-2 2-5 8-5h10v3l-3 4 1 3 4 1s3 2 1 2l-4 2v4l-2 1h-2l-3 2-2 1h-3c-2 1-2 2-3 1 0 0-1-2-2-1l-5 2h-1s-2-2-3-1h-3l-3 3h-4c-2 0-3-1-3-3l1-2 1-1-2-2c-1-2 0-3 1-3l2-1 1-1 1-1 1-1z" transform="matrix(.3695 0 0 .51355 617 69)"/><path fill="#cf142b" stroke="#000" d="M-392 391h2l3-1 3-1 1 1 1 2h3l-2 3h5l4-3 1 2c0 1 0 3 1 2l3-2 4-2v2c0 1 1 2 2 1l3-2 3-2v3l3-1 2-3 2-1v3l3 1c1-1 2-1 2-3l1-2 1-3c1-1-1-1 2-1h6l2-1 4-2 5-1 5-1 6-2 3-1 5-1 6-2 7-1 4 1 2 5 5 1 8-1 8-1h7l4 4 1 2-5 1c-2 2-5 5 2 6h1l-2 2 1 2h4l3-1 1-1v1l3 1 2-2 1-3v-7c-1-2 1-2-1-3l-3-3-4-3-2-2-2-3c-2-1-5 1-6 1h-9l-4-2-2-1-1-2v-2h8l6 2 6 1h6l6-1 2-2 2-4v-4l-4-3c-1-1 3 3-1-2l-4-6-2-1s2 3 0 3l-3-1-4-2-1 1c-1 1 2 3-3 1l-4-3c-3-1-2 1-2 1v2h-4l-3-3v4l-1 3h-4l-6 1-5 2-6 2h-6l-5-1c-1-1-2-2-1-3l3-1 6 1 10-2 1-3 1-3 2-4 2-3h-2s1-2-1-1l-3 2s-1-2-2-1l-2 3-2 2-2 2s1 1-1 1l-5 2h-4l-3 2c-1 1-2 0-3 2s-2 3-1 4c0 1 0 2 2 3l5 2h9l8-1 8-3 12-2h13l6 1 5 3v4l-4 2-10-1-12-2-11-1-8 1-13 2-11 3h-18l-8 1-9 5-6 5-4 5-3 3h-5l-7 1h-8l-1-2v-3l-1-1-3-1-2 2h-5l-1 2v2l1 2 1 1v4z" transform="matrix(.3695 0 0 .51355 617 69)"/><path fill="#528ef7" stroke="#000" d="M-353 355h-7a7 7 0 01-4-1l-2-3v3l1 2 2 1h3l2-1 3 1 2 1 1-1v-2z" transform="matrix(.3695 0 0 .51355 617 69)"/><path fill="#cf142b" stroke="#000" d="M-393 348l-1 2s-2 1 0 3l3 1 2 1 1 2-3 1-3-1 1 4 2 2 4 1-2 1h-2l3 2h10l-3 3-5 1 5 2 5-2v3l-3 3h2l4-2c1 0 1-1 1 1l-1 4s-2 2 0 1l4-1 2-2h6l5-1c1-1 2-3 1-4l-2-3-4-3h-2l-5-1-4-4-5-4-3-4 2-1 2-3v-2l-1-2-2-1-2 1-1-1-1-2-1-1-4 2-1 1v2h-2z" transform="matrix(.3695 0 0 .51355 617 69)"/><path fill="#cf142b" stroke="#000" d="M-336 345l2-3 1-2-3 1-4 1h-10l-2 1-3 1-4 1h-1v7l2 1 1 2v-2h3l1 2v2l-1 1h-1l-1-2-1 2h-1l-1 2-1 1-1 1h4v1l-2 2-1 1h-2l-1 1 1 1c1 0 3 1 1 1l-3 1v1l2 2 1 1-2 1c-1 0-3 0-2 1h7l-3 3 3 1 3-2-1 3 2 1 2-2 1-2h2l2 1h3l-2-2 1-2 5 1 3-2-3-1v-1h3l3-1c1-1 3-1 1-2l-3-1v-2l3-1 1-2h-3l-1-2v-2l3-1 1-2v-3c0-1 0-2-2-2h-2l1-2 2-1 3-3v-2l-2 1-4 1z" transform="matrix(.3695 0 0 .51355 617 69)"/><path fill="none" stroke="#000" d="M-354 348v-1h10m-16 0h3m20 7s0 0 0 0v1m0 3l1-1 2-1v-4m-23 11l1 1 1-1 1-1h4l1-1h1l1-1h1l2-1v-1l1-2m-14-3h-1 0m3 5h-2m-31-11v4m7-5v1l-1 2-1 1m-6 28l1 1v2l1 1m-5 3h5m61 5l1-1 2-1h4m-5-5l3 2h2m73 7v-2l1-2 1-2v-1m-10 5l2-2 3-2 1-2" transform="matrix(.3695 0 0 .51355 617 69)"/><path fill="#fff" stroke="#000" d="M-346 347v1l-1 2h-4v-3l1-1z" transform="matrix(.3695 0 0 .51355 617 69)"/><path d="M488 247v2l1-1v-1z"/><path fill="#e91630" d="M514 261h-1v-1l-2-2v-2l2-1 1 1 1 1 1 1 1 1 2 1h-1l-1 1h-3zm-29-15l1 1v-1h3l1 1 1-1 1-1h1-5l-1 1h-2zm-5 21l-2 2 2-1 1 1h1c1-2 2-1 2-1v1l2-2 1 1 1-1h1l-1-2-1 1a136 136 0 01-5 1h-2zm2-7l-2 2v-2h-1v-2h-1v-2h-1l-1-1v-3l2 2 2 2 1 2 1 1zm12 1l-1 1 1 1-1 2 3-2 1-2h2l2-1 1-2 3-1 2-1v-1l-7 1h-6l2 2v1l-1 1h-2zm-8-4l-1 2h-1 2v3l2-1 1 1v-2h1v-1h2l-1-2 2-1-1-2-1 2-1-1-1 2h-1l-2 1v-1zm25-15l-1 2v2l-2 1h-2v-1h2l1-1v-3l1 1 1-1z"/><path fill="#528ef7" stroke="#000" d="M-377 345l-1 1h-2v-5l1 1 2 1v2zm-7-1l-1 1h-2l-1-1 1-1-1-1v-1h1l2 1 1 2zm-7 4l-1 1v1h-2l-1-2-1-1h5zm7 29l-1 1h-3v-1l1-2v-2l1 1 1 1 1 2zm-9 2v1l-1 1-1 1-1-1v-1h-2 0l1-1 2-1h1zm0 8l1 1 1 1-1 1-1 1-1-1-1 1h-1l1-1v-2l2-1zm72-6v2l-1 1-1-1-1-1h-2l2-1 1-1h2zm-5 4v3h-2l-1-1h-2l1-1 2-1h2zm0 7l1 1v2h-2l-1 1h-1l1-1v-2l2-1zm70-6h0l1 2-1 1h-4 0v-1l2-2 1-1zm3 6h1l1 1v1l-1 1h-1l-1 1v1l-1-2v-2l1-1zm8 0l1-1h1l2 1v1l-1 1v2h0l-1-1-1-1-1-2z" transform="matrix(.3695 0 0 .51355 617 69)"/></g><g stroke="#000" stroke-width=".7"><path fill="#0f4b32" fill-rule="evenodd" d="M-232 315h1v-1c-1-1-3-3-2-4 1-2 6-1 8-1l2-1-4-1 3-2 3-2-4 1 2-4 1-2-2 1 1-6 2-4-3 2v-5l-1-3v2l-1 2h-2l1 3 1 4-2-1 1 3v4l-2-1c1 2 1 5-1 7l-1-2-1 2-1 1h-2l-1-5v-6h-1v7l1 5-3-1-1-4-1 3-1-4v-4l-1-1h-2c0-1 3-5 2-6h-2l-1-7c-1 1-2 4-1 6l-3-1 1 1 1 3 1 2v1l1 1h-3l1 1 2 2 1 2 1 2s0 0 0 0h-3l-1-1a25 25 0 002 2l2 3 3 1h-2l-2 2 4 1v2c1-2 3-3 6-2l1 1 2 2z" clip-rule="evenodd" overflow="visible" transform="matrix(-.62662 0 0 .83504 313 9)"/><path fill="#846bc9" fill-rule="evenodd" d="M-235 288h1l1-1c1-1 3-4 1-4h-1l-2-2h-1l-2 1h-2l-1 3v1l1 2h4z" clip-rule="evenodd" overflow="visible" transform="matrix(-.62662 0 0 .83504 313 9)"/><path fill="none" stroke-linecap="round" d="M-53-7l1 3m1 0l1-3m1 3l1-3" transform="matrix(-.62662 0 0 .83504 429 253)"/><path fill="#0f4b32" fill-rule="evenodd" d="M-232 290c-2-3-9-3-9 1 0 2 2 5 4 6 4 0 6-4 5-7z" clip-rule="evenodd" overflow="visible" transform="matrix(-.62662 0 0 .83504 313 9)"/></g><g stroke="#000" stroke-width=".7"><path fill="#0f4b32" fill-rule="evenodd" d="M-232 315h1v-1c-1-1-3-3-2-4 1-2 6-1 8-1l2-1-4-1 3-2 3-2-4 1 2-4 1-2-2 1 1-6 2-4-3 2v-5l-1-3v2l-1 2h-2l1 3 1 4-2-1 1 3v4l-2-1c1 2 1 5-1 7l-1-2-1 2-1 1h-2l-1-5v-6h-1v7l1 5-3-1-1-4-1 3-1-4v-4l-1-1h-2c0-1 3-5 2-6h-2l-1-7c-1 1-2 4-1 6l-3-1 1 1 1 3 1 2v1l1 1h-3l1 1 2 2 1 2 1 2s0 0 0 0h-3l-1-1a25 25 0 002 2l2 3 3 1h-2l-2 2 4 1v2c1-2 3-3 6-2l1 1 2 2z" clip-rule="evenodd" overflow="visible" transform="matrix(.62662 0 0 .83504 687 9)"/><path fill="#846bc9" fill-rule="evenodd" d="M-235 288h1l1-1c1-1 3-4 1-4h-1l-2-2h-1l-2 1h-2l-1 3v1l1 2h4z" clip-rule="evenodd" overflow="visible" transform="matrix(.62662 0 0 .83504 687 9)"/><path fill="none" stroke-linecap="round" d="M-53-7l1 3m1 0l1-3m1 3l1-3" transform="matrix(.62662 0 0 .83504 571 253)"/><path fill="#0f4b32" fill-rule="evenodd" d="M-232 290c-2-3-9-3-9 1 0 2 2 5 4 6 4 0 6-4 5-7z" clip-rule="evenodd" overflow="visible" transform="matrix(.62662 0 0 .83504 687 9)"/></g><path fill="none" stroke="#000" stroke-width=".5" d="M450 236v62s0 48 50 67c50-19 50-67 50-67v-62z"/><g stroke-width=".6"><path fill="#fd5" fill-rule="evenodd" d="M494 283h8v4h-8z"/><path fill="#e9ca57" d="M502 283l-2 4h2v-4z"/><path fill="#f3c200" stroke="#000" d="M196 269h10v5h-10z" overflow="visible" transform="matrix(.80807 0 0 .85949 335 52)"/><path fill="#fd5" fill-rule="evenodd" d="M463 301s10-16 35-15c0 0 25-1 37 17 0 0-16-8-27-10 0 0-6-2-7 2h-6s-1-3-9-2c0 0-13 3-23 8z" clip-rule="evenodd"/><path fill="#e9ca57" d="M463 301l6-4 14-6 9-1h4c1 1 2 2 4 1l6-1 6 1 10 3 8 6 4 3-3-2-7-3a186 186 0 00-17-5h-4l-1 1v1h-7l-3-2h-3l-5 1-8 2-9 3z"/><path fill="#f3c200" stroke="#000" d="M158 290s12-19 43-18c0 0 31 0 46 20 0 0-20-10-33-12 0 0-8-1-9 3h-7s-1-4-11-2c0 0-17 3-29 9z" clip-rule="evenodd" overflow="visible" transform="matrix(.80807 0 0 .85949 335 52)"/><path fill="#fd5" fill-rule="evenodd" d="M494 295h8s3 1 0 4v52s0 3-2 3c-3 0-4-3-4-3v-51s-3-3-2-5z" clip-rule="evenodd"/><path fill="#e9ca57" d="M494 295l2 1 1 1v3l-2-1v-1l-1-1v-2zm8 0l-1 2-1 1v54h-1l-2-1h-2l3 2 2 1 1-1 1-2v-52l1-1v-1l-1-2z"/><path fill="#f3c200" stroke="#000" d="M196 283h11s3 2 0 5v60s-1 3-4 3-5-3-5-3v-60s-3-2-2-5z" clip-rule="evenodd" overflow="visible" transform="matrix(.80807 0 0 .85949 335 52)"/><path fill="#ffd32a" d="M488 288h-4l-6 3-5 3-2 2 8-4 6-3h21l6 1 6 2-3-2a246 246 0 00-22-3h-4zm7-4l1 1h4v-1h-5zm4 12h-1v54h1v-2z"/></g><g><path fill="#f3c200" stroke="#000" stroke-width=".5" d="M548 201v-3l1-2 3-3 6-3 7-3 4-3 1-2v-3l-1-1-2-1-4 1 5-2 2-1 3-2 1-2-2-3h-2l-3-1-2 1-2 1-2 2v-3l-2-3-1-1-2 1-3 3v6l-3-5-4-5-3-3-1-4v-4l2-3-2-4-6 1-3 6v7l2 4 1 3 1 2-2-1-3-2-2 1-1 1v4l-1-2-3-2h-4l-1 1v5l2 4 2 2 3 1 1 1-1 1-2 2v4l2 2 3 2h8l1 2-2 7 2 2h4l5-3z"/><path fill="none" stroke="#000" stroke-width=".5" d="M567 173l-3 1-4 3-6 6-5 5-3 5-2 5v-7l1-3v-7l-1-5-2-5-1-4-1-5-2-2v-9l1-1m-15 23c1 3 4 5 4 5l3 2 4 3 3 5 6 10"/><path fill="#ffd32a" d="M539 173l-4-2s-2-4-3-3v6l-2 1 3 3 3 4 2 2 4 6 1-4v-6l-1-5zm16-4v7l-1 3h1l2-3 2-2 1-3v-3l-1-2h-2zm12 11l-2-1-4 1-4 3-2 3-1 1-3 3 4-1 4-2 4-1 2-3zm-19-9l-1-1-1-3-1-1-1-1v3l2 5 1 5 1 4-1 3-1 3 3-4 1-3 1-2-1-3-2-5zm-18 13h-2l-1 2v2l1 1 5 1h2l3 2-1-3-1-2-3-2zm37-16h-1l-1 1-2 2h5l1 1 2-1v-1z"/><path fill="#0f4b32" stroke="#000" stroke-width=".5" d="M498 180l2 3v3l-1 3-1 2-1 2-1 3v3l2 1h4l2-2 2-2v2l-1 3v2l1 2 2 1 3 1 1-1 2-2v-9a154 154 0 001 8l2 3 2 4 4 4 4 2 1-2 1-2-1-2v-1l3 3 4 3h5l1-1v-4l-1-2 4 1 2-1 4-1 2-2 2-2-1-3-2-1h-2l-2 1-3 2v-5l-2-2-3-1h-2l2 1v2l-1 3-2 2-1 1h-5l-4-2-3-4-3-4-1-3v-4l-1-2-9-6zm51-46l-2 2-1 3-2 3-3 2s-2-1-3 1l-3 3-1 3 3-3 2 1 4 2 1 3 1 3 1 3 3 3 2 1h2l1-2 1-2v-3l2 3 2 3 4 2h3l1-3v-4l4 2 3 1h3l3-2v-2l-2-3-2-1h2l2-2 2-3 1-2v-8l-2-3s-4-3-5-2l1 3 2 2 1 3-1 2-1 3-2 1-2 1-3-1 2-1-1-3-1-1-3-1-3 1-3 1-2 1h-1l3-1 2-2 1-1-2-3v-1h-3l-2 2-3 2-2 2 2-2v-3l-1-2h-5z"/><path fill="none" stroke="#000" stroke-linecap="round" stroke-width=".5" d="M562 158l-1-2-3-4-3-2-2-1-6-2-6-2-4 1m29-1l-2 1-3 1-3 1a96 96 0 00-6 0m21 8l-3-2-5-2-4-1-4-2h-4m22 1l-4 1h-6l-4-1"/><path fill="#0f553c" d="M552 158v2l-2 1-1-1-2-3-1-3v-3l-2-2-3-1 4 1h3l3 2 1 3zm5-5v2l1 3 2 3 2 1h2l1-1 1-2v-4l-4-3 1 2 1 3v2l-2 1-1-1zm11 5h3l3 1 2-1v-3l-3-2 2 2v2l-3 1zm-15-22v3l-1 2-3 2-2 1h-4l2-2 3-1v-4l3-1zm9 1h-2l-2 2-2 2-2 2-2 1-4 2h6l2-1 2-2 2-1 1-1 2-2zm5 9l-3 1-2 1-1 1h9v-1l-1-2 1-1v-1l-1-1-2-1-3 2h4l1 1zm13 0l-2 1v3h2v-2l2-3v-5l-1-1-1 2 1 3z"/><path fill="#f3c200" stroke="#000" stroke-width=".5" d="M578 125l1-2 1-3-1-4h-1v-2l-3-1-2-1v1l-3-1-1 2-2-1-1 2v1h-4v1h-2l-1 1v3l-2 2h0l1 2v4l1 1 1 2 3 1h2l1-1 2-1z"/><path fill="none" stroke="#000" stroke-width=".5" d="M578 120v1l-1 1v1h0v2h0m-1-8v5l-1 2v2m-3-9v8l1 1m-1 1l-1-2v-1l-1-2-1-1-1-2m2 8h-1l-3-2-1-3-1-1-1-2m-1 5l1 2 2 1 2 1 3 1 1-1m-1 2h-8"/><path fill="#f3c200" stroke="#000" stroke-width=".5" d="M572 136l-2-2-1-3v-3l2-2 4-1h3l2 1 2 3 1 3-1 3-2 2-2 1-5-1z"/><path fill="#ffd32a" d="M578 128l-3-1h-2l-1 1v1l-1 2 1 2 3 3h4l1-2 1-2zm-4-13l-2-1 1 1v2l1 2v3-7zm-8 2h-1v3l2 3 2 1-1-2-1-3zm3-2v3l1 2 1-2-1-2zm8 1v3l1-1v-1zm-16 3v3l2 2 3 2-2-3-2-2v-1l-1-1zm-2 4v3l2 2h3l-2-1-1-1-1-3zm2 7v1l1 1h1l2-1z"/><path fill="#0f553c" d="M502 186l-1 4-1 3v2l2 1 2-4 3-1 1 4v6l2 1 1-4 1-6h3l2 4v3l2 4 2 5 2 4 2-1v-2l3-2 3 1 3 3 2-2 2-3h5l3-1 1-2h-2l-4 1v-3l-1-3-3 4-3 3h-2l-7-2-3-4-3-2-1-4-2-4v-2h-7l-7-2v1z"/></g><g><g stroke-width="1.1"><path fill="#998e7b" d="M588 197v-2l1-2v-2l2-1v-2l2-1v-2l2-1v-1l3-1 2-1h4l2-1h3l2 1h2v1l2 1 1 1 2 1 1 2 2 1v1l2 3 1 1 1 1v2l1 2v3l1-1v-4l-1-3-1-2-1-1-1-2-1-2v-1l-1-1-2-1-1-2-1-1-1-1h-2l-1-1h-1l-2-2h-4l-1-1h-5l-1 1h-4l-1 1-3 1v1l-3 2v2l-1 1-1 1-1 2-1 1-1 2v3l-1 2 1 1 1 1h3z"/><path fill="#ada495" d="M627 200v-3l-1-3v-3h-1l-1-1v-1l-2-3-1-1a4 4 0 00-1-2l-1-1-2-1-1-1v-1h-2l-1-1-1-1h-1l-2-1h-3l-2-1h-4l-2 1h-2l-2 1-1 1h-2v1l-1 1h-1l-1 1a34 34 0 000 2h-1l-1 1-1 2v1l-1 2-1 1v4h-1 1v1a13 13 0 013 1v-2l-1-2c-1 0 0-1 0 0h2v-1l-1-1-1-1h2l1 1v-1l-1-1-1-2h2v1l1-1a22 22 0 000-3 104 104 0 012 1h1l-1-1v-2h3v-2h2l1 2v-3h1c1-1 1 0 2 1l1 1v-3h1v1l1 1 1-1v-1l1 1 1 1 1-1v-1l1 1v1l1-1h1l1 1h2v1h2v1l1 1 1 1h2v2l1 1h1v1l1 2 1 1 1 2v1l1 1a49 49 0 011 5c0 2 0 2 1 1z" color="#000" overflow="visible" style="marker:none"/><path fill="none" stroke="#000" d="M178 228l-1-4 2-2c-2 0-3-2-3-3l-2-3-3-3v-3l-4-2-1-3c-1 0-3 0-4-2 0-1 1-1-1-2a44 44 0 01-11-4h-8l-4-1-7-1-2 1-3 1h-5l-1 3-4 1c-2 0-1 2-3 2l-4 2-3 3-3 2-1 2-4 5-1 2-3 3-1 3-2 4v5l-2-2 1-7 2-6c0-1-1-3 1-4l3-1 1-5 2-2 2-2 2-3 3-2 3-3 3-2 2-2h4l4-3h2l4-2h3l3-1h2l3-1h10l3 1h4l6 1 2 2 6 2 2 1 5 3 1 4 3 2 1 3 3 2 1 4 2 2 1 4v3l2 3-2 3-3 1-4 1-3-1z" transform="matrix(-.43853 0 0 .53682 666 75)"/></g><path fill="#ece2d1" d="M583 314l-3 2-4 4-2 3v11l-2 2h-3l-4 3-6 4-3 2-5 4-2 2-2 2h-2l-1 1-2 1-4 1-5 1v-4h-2c-1 0-2-1-1-2l1-2 2-1 2-2 4-1h4l2-1 3-3 2-1 4-3 3-3 3-1 3-2v-6l-1-5-1-12c0-3-1-7 1-9l3-3 5-3 4-3 3-1c2 0 4 0 6 4 2 3 4 3 4 8s-1 8-2 9l-2 4z"/><path fill="#dbceb9" d="M582 309l-1-1-1 2-2-1v2c-1 1 0 2-1 1l-2-2v3h-2c-1-1-1-2-1 0s0 4-1 3h-1v2h-1l1 3-2-1v2c-1-2-3-2-2-3l2-3h-2l1-3-1-1v-2l1-1c-1 0-3 1-1-1l1-1c0-1-3 1-1-1l2-2c0-1-2 0-1-2l2-1c-1-1-3-2-1-2l2-1v-1l3-1v-3h1l2-2h3l3 3 2 7-1 6-1 2z"/><path fill="#dbceb9" d="M536 356l7-2 1-1 1-1h1l2-1a64 64 0 019-7l5-4 7-4h1l3-1v-1l1-2-1-4v-2l1-2 1-3 7-7v-1l-1 1-2 1-3 3-2 2v2l-1 2v3l-1 4-1 1-1 1h-5l-1 1v1l-1 1-2 2-3 1c-2 0-3 0-3-2v-1l-1 1a54 54 0 01-6 4l-2 2-4 2h-2l-6 2-1 1-1 1-2 2v1h2l1 1v3h3z" color="#000" overflow="visible" style="marker:none"/><path fill="#82632c" d="M582 311l-3 1-2 1-2 3-1 2v1l-2 1v8l-1 3-1 1 2 1v1l1 1 1-2v-10l3-4 3-3 2-2 1-3z"/><path fill="#0c0c0c" stroke="#0c0c0c" stroke-width=".5" d="M533 356h1s0 0 0 0 0 0 0 0a27 27 0 004-1s0 0 0 0 0 0 0 0h1s0 0 0 0 0 0 0 0 0 0 0 0 0 0 0 0h1a60 60 0 003-1l1-1h0l-1-1-1-1v-2l1-1v-1l-2-1-1-1-1 1a33 33 0 01-2 0s0 0 0 0 0 0 0 0 0 0 0 0 0 0 0 0h-1s0 0 0 0 0 0 0 0 0 0 0 0 0 0 0 0 0 0 0 0l-1 1-2 2h-1a6 6 0 00-2 2v1s0 0 0 0h1s0 0 0 0l2 1h0a91 91 0 000 3h0z" color="#000" overflow="visible" style="marker:none"/><path fill="none" stroke="#000" stroke-width=".5" d="M583 314l-3 2-4 4-2 3v11l-2 2h-3l-4 3-6 4-3 2-5 4-2 2-2 2h-2l-1 1-2 1-4 1-5 1v-4h-2c-1 0-2-1-1-2l1-2 2-1 2-2 4-1h4l2-1 3-3 2-1 4-3 3-3 3-1 3-2v-6l-1-5-1-12c-1-6 0-8 1-9l3-3 5-3 4-3 3-1c2 0 4 0 6 4 2 3 4 3 4 8s-1 8-2 9l-2 4z"/><path fill="#9b7735" d="M583 221l-2-1-2-1-3-2h-6l-3 1-2 1-3-1v-1l-1-1-1-2 1-2v-2l2-2h2l3-1 3-2 3-2 2-1v-3l2-2h2l2-2 2-1h2l2 1 4 1 2 2h2l3-4 2-2 4-3v-4l2 2v5l-1 2v7l-2 2-2 1 1 1 1 2-2 2 1 1 3-3-2 4 2-1-1 2 2 1-1 1h1l-1 1c-1 1-3 0-1 1s5 0 3 1c-2 0-3 0-2 1 1 0-2 0-1 1l1 1 2 2-2 1h2c-2 1-4 0-2 1s3 1 2 2h-2c2 1 3 1 2 2h-2v1c1 1-1 1-1 1 1 1 3 2 1 2h-1l1 1c-2 0-3-1-2 1 2 2 1 3 0 2 0 0-1-1 0 0v3c-2 0-3-1-1 1 1 1-2 1-2 1s4 2 2 2h-3c2 1-1 1 0 1l1 1v2c0 1-3 0-1 1 1 1-3 2-2 3 2 0 2 1 1 2v1l-2 1v2l-2 2v6l1 12 1 5 1 2 4 6 2 6 2 4 1 3c1 1 4 3 5 2h3l2-3v-5l-1-7-1-6-1-6v-3l-2-1-1-2-2-3v-3l1 3 2 2 1-2-1-2-2-4 2 3 1-1-2-2 1-1v-2l-2-4s-1-3 1-2l2 3 2 2v-1l-3-3-1-4 1-4h1l1 2 2 3 2 1-2-4-3-4-1-3v-6l-1-1 3 1 2 3 2 3c1 1 2 1 2 3l1 6v6l-1 6-2 8v7l1 6 2 7 1 5v6l-1 5-3 4-5 1-4-1-4-2v2l1 7v5l2 5 2 3 3 2 1 1 2 2v3l-1 5v19l1 2v3l-1 2-1 1-1 4-1 2-2 1-1 1-1 2-2 1-3 1-1-1 1-2-2 1-3-1 1-2 2-1 1-2 2-3 2-3 2-2 1-2v-8l-1-7-1-6v-1l-4-5-5-3-3-2-4-4-3-5-3-3-2-4-1-10-2-10-1-3-2-2-1-2v-3l-2-5-3-4-2-3-3-2-1-3-2-5-4-7-1-6 1-5 2-4 3-3 4-1v-3l4-7 6-4 3-3 2-1z"/><path fill="#ece2d1" d="M562 218v-1l-1-1-1-1 1-2v-4l2-1 3 1 6-4 7-6 6-2 3-1 4 5 1 7-4 8-4 3-9-4-7 1-7 2z"/><path fill="#28241c" d="M587 202l-1-1-1-1h-3l-1-1s-2 1 0-1l8-2 5 2h1v2l-4 2h-4z"/><path fill="#ece2d1" d="M605 189l2 1v1l-1 2-1 1v5l-1 1-2 2v2l1 1h-1l-2-1v-1l-2 2-1 1v-3l1-3 1-3 2-2 2-2 1-3 1-1zm-38 50l2 1-1 2-2 2-1 3-1 4v3l-1 1-3 1-1 1-1-3 1-6 2-4 3-4 3-1zm7 27l2 1c1 4 9 6 8 14l1 1v6l-1 4-2 2-2 2v-1l-1-2-2-1-1-2v-3l-1-3-2-5-3-2-3-4-2-2-1-3 1-1h3l3-1h3z"/><path fill="#86662e" d="M572 238l1-4 3-3 3-3 2-2 1-2c1-1 0-2 2-3l4-1 4-1 2-3 3-4 1-1-1 6-4 8-2 3-2 2h-3l-4 3-2 3-1 1h-4l-3 1zm-3 5l5-2 4-1h8l3 1h2l-2-2h-4l-8 1h-5l-3 2zm16 39l2 1h2l-1-3v-7l-2 1h-1l-1-4-2 2v-3l1-2h-2l2-3 3-1h4c2 0 3 3 3 3l3 2-1-4-1-4 2-2 1-2 1-2 1-1v-2l-1-1v-6l-2-1-1 6-1 6-3 2-3 2-2 2h-3l-2 1-2 1-3 3h-1v5h2v2l1 1 1 2 1 1 1-1v3h1l1-1 1 3v1zm-5 14l2 1 1 3 2 2 1 5v6l4 7 2 1 2 2 2 4 3 4 4 1 3 1 1-3-1-1v-1l-1-2 1-2 1 3 4 4 2 3h2l1 2-1 5v22l1 2v3l-1 2h-1l-1 4-2 4-2 1v2h-2l-4 2-1-1 1-2-4 1-1-1v-1l2-2 1-1 2-2 1-2 1-2 2-2 1-1 1-1v-10l-2-9v-4l-4-5-7-4-1-1-6-7-3-4-3-4-1-6-1-10-1-6z"/><path fill="#dbceb9" d="M614 370h1l1-1v-3l-1-2v-7a80 80 0 010-12l-1-2 1-2 1-3-5 4h-1l-2 1-1 1v1a4974 4974 0 005 25h2z" color="#000" overflow="visible" style="marker:none"/><path fill="#ab8540" d="M591 280l2-2 1-3v-5l-2-3-2-2-2-1h-2l-2 2v2h1l1 3v1l2-2 1 4v5l2 1zm7 46l4 3 2-1 1-3-1-4-1-3-1-4v-4a154 154 0 000-7l-2-6v-3l-2-3-2-2-3-2-2 2-2 2-1 3 1 1 1 1v1l1 2v2l2 2-1 2 1 1 1 2 1 1 1 1 2 3v2l-1 3-2 1 2 1 1 1-1 1 1 2v2z" overflow="visible"/><path fill="#28241c" d="M570 208l1-1 1-1h2l2-1 2-1 1-1 1-2 1-1 2-1 3-1 2-1s1 1 0 0l-1-1v-1l-1-1h-1l-3 1-1 1-2 1h-1l-2 1v3l-2 1-2 2-1 1-2 1-1 1-2 1-1 1h2l1-1h2zm34 89l-2-7-3-5-2-3-2-15-1-6 1-2 1-2 2-2 1-1v-1l1-1-1-1h-1v-1l2-1-1-1 1-1 1-1v-1h-1l1-2h-1 4l-2-2h1v-1l-1-1h2l-1-3h2c0 1 0 0 0 0l-1-2v-1h2l-1-1-1-1 2 1h1l-2-2 1-1h-1v-1l3-1-2-2 1 1 1-1-3-1h1l3-1h-3l2-2h-1l-1-1v-1h-1l1-1v-1h3l-5-1h1l2-1-1-1 1-1-2-1 1-2-2 1 2-4-4 3v-1l2-3-1-1-1-1 1-1 2-1v-1l1-5v-3l1-2v-5l-2-1v2l-1 3-2 1-3 3-3 3-1 3-1 1h-2l-1-1v-1h-1l-1 1-1 1h-1a128 128 0 003 5l1 1-1 1-1 2-1 1h-8l-3 1h-2l-4 1a130 130 0 009 1l1 1 2 1 1-1h1l2 1v1-1l-1 1v1l-1 1-1 1h-2 2l3 1 5-2 1-1 2-2 1-2v3l-1 3-1 2v2l-2 2c-2 0-2-1-2 1 1 1-2 0 0 2l1 1h-3c0 1-2 0 0 1l1 2h-2s2 1 0 1c-2 1-3-1-2 1 1 1-7 0-4 1l4 3h-2l2 1s-4 0-1 1l2 1 1 2c0 2-2 1-2 3 1 2 0 4-1 4-1-1-2-2-1 0v9l-1 2v1l2-1 1 1 1-1 1 3 1 2 2 5 2 4v3h1v5s0 3 3 3v5h2l2 6 2 1 1 1 1 1 1 1h1zm12 15l3-2 3-4v-9l-1-6-1-6-1-2-1-5v-8l2-7 1-8v-5l-1-7a45 45 0 00-5-5l-1-2-3-1 1 1v8l1 1 2 2 2 3 1 2v1h-1l-2-3-1-2-1-1-2 4 2 5 2 1 1 1v1l-6-5v3l2 4v1h-1v1l2 1v1h-1l-2-2 1 3a107 107 0 002 4s0 1 0 0l-3-2-1-2v4l2 3 2 1v1l1 3 1 7 1 5 1 5 1 4-2 4-1 2-2 1v2h3v1l-2 2z"/><path fill="#0c0c0c" stroke="#0c0c0c" stroke-width=".5" d="M604 382a17 17 0 001 0s0 0 0 0l1-1 2-1 1-1 1-1 3-4 1-3s0 0 0 0h-3v-1l-3-2h0l-1 1h-1l-1 2-1 2-3 3v1l-1 1h-1v1l-1 1h4a29 29 0 002-1l-1 1v2h1z" color="#000" overflow="visible" style="marker:none"/><path fill="#232019" d="M576 199l1-1 1 1v3h-1l-1-1v-2z"/><path fill="#ece2d1" d="M603 202h-1l-1 1-2 1-1 1-1-1v-6l1-2 2-2 3-1 1-2 2-2 1-1v2l-1 3-1 2v4l-1 2-1 1z"/><path fill="#dbceb9" d="M576 267l-2 2h-1c-2 0-3-2-3 0l-1 2 3 3 2 1 4 2 2 2 2 3v4l-1 3-1 3v2l-4-3v-4l-2-6-4-5-4-3-1-5 5-1 5-1zm-14-51h3l2-1 3-1h7l3 1 2 1h4v2l-1 2h-3l-5-2-4-1h-3l-3 2h-2l-3-1zm19-13v-2l1-1 2-1v1zm17-1v2l1-2h2l1-2 1-1v-3l1-3-2 2-2 3-1 2-1 2zm-36 10v1l1 1 2-1 1-1 2-1h-4z"/><path fill="none" stroke="#000" stroke-width=".5" d="M583 221l-2-1-2-1-3-2h-6l-3 1-2 1-3-1v-1l-1-1-1-2 1-2v-2l2-2h2l3-1 3-2 3-2 2-1v-3l2-2h2l2-2 2-1h2l2 1 4 1 2 2h2l3-4 2-2 4-3v-4l2 2v5l-1 2v7l-2 2-2 1 1 1 1 2-2 2 1 1 3-3-2 4 2-1-1 2 2 1-1 1h1l-1 1c-1 1-3 0-1 1s5 0 3 1c-2 0-3 0-2 1 1 0-2 0-1 1l1 1 2 2-2 1h2c-2 1-4 0-2 1s3 1 2 2h-2c2 1 3 1 2 2h-2v1c1 1-1 1-1 1 1 1 3 2 1 2h-1l1 1c-2 0-3-1-2 1 2 2 1 3 0 2 0 0-1-1 0 0v3c-2 0-3-1-1 1 1 1-2 1-2 1s4 2 2 2h-3c2 1-1 1 0 1l1 1v2c0 1-3 0-1 1 1 1-3 2-2 3 2 0 2 1 1 2v1l-2 1v2l-2 2v6l1 12 1 5 1 2 4 6 2 6 2 4 1 3c1 1 4 3 5 2h3l2-3v-5l-1-7-1-6-1-6v-3l-2-1-1-2-2-3v-3l1 3 2 2 1-2-1-2-2-4 2 3 1-1-2-2 1-1v-2l-2-4s-1-3 1-2l2 3 2 2v-1l-3-3-1-4 1-4h1l1 2 2 3 2 1-2-4-3-4-1-3v-6l-1-1 3 1 2 3 2 3c1 1 2 1 2 3l1 6v6l-1 6-2 8v7l1 6 2 7 1 5v6l-1 5-3 4-5 1-4-1-4-2v2l1 7v5l2 5 2 3 3 2 1 1 2 2v3l-1 5v19l1 2v3l-1 2-1 1-1 4-1 2-2 1-1 1-1 2-2 1-3 1-1-1 1-2-2 1-3-1 1-2 2-1 1-2 2-3 2-3 2-2 1-2v-8l-1-7-1-6v-1l-4-5-5-3-3-2-4-4-3-5-3-3-2-4-1-10-2-10-1-3-2-2-1-2v-3l-2-5-3-4-2-3-3-2-1-3-2-5-4-7-1-6 1-5 2-4 3-3 4-1v-3l4-7 6-4 3-3 2-1z"/><path fill="#363026" d="M595 198l-1 1v2l-1-1h-4l-1-1 1 2 2 1 1-1 1 1 1 1 1 1 1-2v-1l-1-2v-1z"/><path fill="#dbceb9" d="M580 208l-1-1 2-1h2l1 1h3l2-1-2 2-2 1h-1l-1-1h-4zm2-5v-1l1-2 1-1 1 1 1 1h1l1 1 1 2h-1l-3-1h-3z"/><path fill="#9b7735" d="M571 255h-6l-5 1-3 2-3 3-3 2-3 1-3 1-2 2v3l1 4 3 2 3 1 2 2 5 4 4 2 4 1h4l3-1h5l2 1v-2l-2-1 3-1v-2l-3-1-5-2h-3l-3 2-1-1h-3c-2 2-2 2-3 1l-4-4-4-4 3-1 4-1 5-1 4-1h3l2-1 3 1 2-1 2-1 3-2"/><path fill="#86662e" d="M550 269l2-1 4-1 5-1 3-1 3-1 4-1 3-1 1-3v-2l-2-2c0-2-1-3 1-3h2l1-2-2-2v-2l2-2h-3l-2 2-3 3-1 2v3l-3 1v-3l1-3 2-3c0-2 0-2-1-1l-2 2-1 4v4l1 1h3l3 1 1 2c0 1 0 2-2 2l-3 1-3 1-2 1-2 1-3 1h-6l-1 3zm-7-2l1 3 2 3h3l2 1 3 2 1 2 2 2 2 1h2l2-1h2l1 2 1 4-4-1-5-2-6-4-2-2-2-1-2-1-2-1-1-2v-5z"/><path fill="#363026" d="M583 248h-3l-1-1h-2v-1l2-2h4l2-2h4l3 1 2 1v3l-1 2-1 2-1 1-1 3-1 1-2 2-2 2v-2c1-1 3-1 2-2l-1-3 1-2h2v-1l-1-1c0-1 2-1 0-1h-5zm8-12l4 3h2l1-2 1-3 2-2v-3l2-3-1-3 1-2-2-3-2-2-1 1v5l-3 2-1 3-1 2-2 2-2 1 1 1-1 2v1h2zm9-21v-3l-1-1v3l1 1zm-8 1l2-1 1-2v-3l-3 2-1 2 1 2zm-1 0h2l-1 1-2 1v-1l1-1zm3-6l1-1v-2l-2-1v2l1 2zm20 31l1 3 2 3 2 3v4l-2 1-2-3c-1 1 1 4 1 4l1 6-3-2 1 3c0 2-1 1-1 1l2 5-1 3h-3l3 3 1 4c1 3 1 0 1 0v-6l2-8 1-7 1-7-3-6-3-5-1-2-1 3z"/><path fill="#663a1f" d="M587 202h-4l-1 1v1l1 2h3l1-1v-3z"/><path fill="#8c502a" d="M583 204l1 1h2v-1h1v-1l-1-1h-3v2z"/><path d="M585 205h1v-1h-1l-1-1v1l1 1z"/><path fill="none" stroke="#000" stroke-width=".5" d="M587 202h-4l-1 1v1l1 2h3l1-1v-3z"/><path fill="#fff" d="M584 203h1v1h-1v-1z"/><path fill="#0e0a04" d="M561 216h4l2-1 2-1 3 1h-4l-1 1-2 1h-3zm1-3l1-2h4c0-1 0 0 0 0l-2 1h-1l-1 1z"/><path fill="#0c0c0c" stroke="#0c0c0c" stroke-width=".5" d="M579 286v-1l-2-2h-1l3-1 1-1-2-1a365 365 0 01-9-3l-2 2-1 1s0 0 0 0v1s0 0 0 0l1 2 1 2h0a248 248 0 0111 1h0z" color="#000" overflow="visible" style="marker:none"/><path fill="none" stroke="#000" stroke-width=".5" d="M571 255h-6l-5 1-3 2-3 3-3 2-3 1-3 1-2 2v3l1 4 3 2 3 1 2 2 5 4 4 2 4 1h4l3-1h5l2 1v-2l-2-1 3-1v-2l-3-1-5-2h-3l-3 2-1-1h-3c-2 2-2 2-3 1l-4-4-4-4 3-1 4-1 5-1 4-1h3l2-1 3 1 2-1 2-1 3-2"/><path fill="#f5f0e7" d="M570 325l1 3-1 2-2 1-3 1-2 2-2 2-2 2c-1 0-2-1-1-2l2-1 2-2 2-2v-2l1-3-1-2-1-3v-4l-1-3 1-4v-5l1-4 1-2v1h1l-1 2v3l-1 3h1l-1 3 1-1-1 3h1v7l1 2 2 1 2-1 1-1v-2c1 0 2 0 1 1l-1 3-1 1z"/><path fill="#473921" d="M564 268l1-1h3l2-1s-1 1 0 0l3-1h2l1 1 2-2 2-1 2-1 3-1h3l1-1-2 1-1 1-2 1v-1l-1 2-2 1-2 2-2 1-1-1h-3l-1-1-2 2h-6z"/><path fill="none" stroke="#000" stroke-width=".5" d="M615 370l-2 1h-1l-1-1-1-1-1-1h-2m-62-15l-1-1-1-1v-4l-1-1-2-1m26-66l-1 1 1 1v1l1 2v2"/><path fill="#171717" d="M607 370h2v1l2 1v1l-2 2-1 2-2 1v-2h-3l1-1 2-3 1-2zm-70-23h3l1 1-1 2 1 2h-3l-3 2 1-3-2-1 3-3zm33-68h2l3 1 2 1-2 1v1l1 1h-4l-3 1-1-3v-1l1-2z"/><path fill="#998e7b" d="M593 197l1-1-1-1 2-2 1-2 1-1 1-2 1-1 1-2 2-1 1-1 4-1 2-1h4l2-1h5l2 1h2l1 1 2 1 1 1 3 1 1 2 2 1 1 1 2 3v1l2 1 1 2v2l1 3v-5l-1-3v-2l-2-1-1-2-1-2-1-1-1-1-2-1-1-2-2-1-1-1h-2l-2-1h-1l-2-2h-5l-2-1h-5l-1 1h-6l-1 1-3 1-1 1-3 2v2l-2 1v1l-2 2-1 1-1 2v3l-1 2 1 1 1 1h4z"/><path fill="#ada495" d="M641 200v-3l-1-3v-3h-1l-1-1-1-1-1-3-1-1a4 4 0 00-3-2v-1l-2-1-2-1v-1h-2l-1-1-1-1h-2l-2-1h-5l-2-1h-4l-3 1h-2l-3 1-2 1h-1l-1 1-1 1h-1l-1 1a30 30 0 000 2h-2v1l-1 2-1 1-1 2-1 1v4h-1l1 1a17 17 0 014 1l-1-2-1-2h3v-1l-2-1-1-1h2l2 1v-1l-1-1-1-2h2v1l1-1a18 18 0 000-3 106 106 0 012 1h1v-3h3l1-1-1-1h2l2 2v-3h1c1-1 1 0 2 1l1 1h1v-3h1l1 1v1h1v-1l1-1v1l2 1 1-1 1-1v1l1 1 1-1 1 1a7 7 0 003 0v1h3v1l1 1 1 1h2l1 2 1 1h2v1l1 2 1 1 1 2v1l1 1a43 43 0 012 5v1z" color="#000" overflow="visible" style="marker:none"/><path fill="none" stroke="#000" stroke-width=".5" d="M593 197l1-1-1-1 2-2 1-2 1-1 1-2 1-1 1-2 2-1 1-1 4-1 2-1h4l2-1h5l2 1h2l1 1 2 1 1 1 3 1 1 2 2 1 1 1 2 3v1l2 1 1 2v2l1 3v-5l-1-3v-2l-2-1-1-2-1-2-1-1-1-1-2-1-1-2-2-1-1-1h-2l-2-1h-1l-2-2h-5l-2-1h-5l-1 1h-6l-1 1-3 1-1 1-3 2v2l-2 1v1l-2 2-1 1-1 2v3l-1 2 1 1 1 1h4z"/><path fill="#232019" d="M594 216l3-4 1-1-2 5m-7 25h2c-2-3-12-3-2 0zm-3 22h4c2 0 3 3 3 3l3 2-1-4-1-4 2-2 1-2 1-2 1-1v-2l-1-1v-6l-2-1-1 6-1 6-3 2-3 2-2 2z" overflow="visible"/><path fill="#15130f" d="M582 220h6l2-1h2l1-2 1-1 1-2 1-2v-2l1-2v1l1 1h-1v2h-1l1 2h-1s0-1 0 0l-1 2v1s0-1 0 0l-1 1-1 2v-1l-3 2v-1l-2 1-2 1v-1h-4zm16-17v-1l1-1v-2h1l-1 2 2-1-1 1h1l-3 2z"/></g><path fill="#666" stroke="#000" stroke-width=".5" d="M487 232v-1h-1l-1 1-1 1-1 2 1 1v1l1 1s0 0 0 0h1v-2h0v-2h1v-2z"/><g><g fill="#fd5" stroke="#000" stroke-width=".9"><path fill="#f3c200" fill-rule="evenodd" stroke="none" d="M482 106h-4l-4 3 1 3v-1l3-1v1l1 2 1 1h3l-1 1v16l3-2 3-1 1-1 3-2 1-2 1-4v-9a7 7 0 00-1-2l-3-2-4-2-2 1v2z" clip-rule="evenodd"/><path fill="#ffd32a" fill-rule="evenodd" stroke="none" d="M483 129l3-2 3-2c1-1 4-3 5-7l-1 6-5 3-6 4" clip-rule="evenodd"/><path fill="none" d="M173 13l-7 1c-3 1-5 3-6 5v4l1-2h4v1l2 3 2 2c1 1 3 2 5 1l-1 1v19l-1 5v2l1-1 4-1 5-3 3-2 4-3 2-2 1-1V21a12 12 0 00-2-4l-4-4-6-2h-4l-1 3z" clip-rule="evenodd" overflow="visible" transform="matrix(.59712 0 0 .60015 379 98)"/><path fill="#ffd32a" fill-rule="evenodd" stroke="none" d="M474 111l2-1h1v-2l3-1h4l-3-1c-2 0-5 1-6 3l-1 2zm10 4l-1 1v3c0-1 0-4 1-3m3-11h-3l1 1 2-1z" clip-rule="evenodd"/><path fill="#f3c200" stroke="none" d="M512 146l-6-3c-2-1-4-2-5-1-2 2-2 3-2 5-1 1-3 1-1 3 2 1 5 3 7 2l7-6z"/><path fill="#f3c200" fill-rule="evenodd" stroke="none" d="M502 143l3 1 14 5 5 1 5 1h2l-2-3-10-8-3-2a150 150 0 00-20-13l-2-2-13 8c-2 5-2 10-1 17l-5 6-2 8 1 1 5 3c0 1 5 3 7 1l5-8 11-16z" clip-rule="evenodd"/><path fill="#f3c200" fill-rule="evenodd" stroke="none" d="M492 154l-4 2-3 2 4-3c1-1 3-2 3-4a12 12 0 001-10l-1-1c0-2 2-1 2 0l3 1 5 2-1 4-2 3-7 4z" clip-rule="evenodd"/><path fill="#ffd32a" fill-rule="evenodd" stroke="none" d="M480 159v-2l2-3c-1 2-4 3-4 5h2zm-5 0l1-3 1-3-2 3-1 2c0 1 0 0 0 0h1v1z" clip-rule="evenodd"/><path fill="#ffd23c" fill-rule="evenodd" stroke="none" d="M483 152l-2 1-1-5 2 2 1 1v1z" clip-rule="evenodd"/><path fill="#ffd32a" fill-rule="evenodd" stroke="none" d="M488 129l4-3 2-2-1 1-3 2-3 1h1m7 5l-2 1v2l1 2 4 1 4 2-3-2-3-2-1-2 1-1zm-13 0l-1 3v6l1 3 2 1 3-2 1-5v-4h-2l-3-1zm4-18v5l-1 4 3-1 3-3v-7l-3 1z" clip-rule="evenodd"/><path fill="#ffd32a" fill-rule="evenodd" d="M163 115l3-1-1-2-1-1c-1 0-3-1-4 1l2 3h1z" clip-rule="evenodd" transform="matrix(.59712 0 0 .60015 379 96)"/><path fill="#ffd32a" fill-rule="evenodd" stroke="none" d="M476 166l1-1h4l2 13-5 1-2-13z" clip-rule="evenodd"/><path fill="#f3c200" stroke="none" d="M476 166l1 1 2 7v4l1-1 1-12s3 13 1 13l-4 2-2-10v-4z"/><path fill="#ffd32a" stroke="none" d="M499 154l-3-2-3 1-3 2 1 4 4 2h4l4 1 5 1 5-1c1-2 3-3 1-4l-2-3-3-1h-10z"/><path fill="#f3c200" stroke="none" d="M516 163l-3 11-31-2v-2l-1-5c0-2 2-3 2-3h18a513 513 0 0014 2h1l-3 10"/><path fill="none" d="M162 116l3-2 7 1 2 22-8 2-4-23z" clip-rule="evenodd" overflow="visible" transform="matrix(.59712 0 0 .60015 379 96)"/><path fill="#ffd32a" fill-rule="evenodd" stroke="none" d="M510 146c-2 7-11 0-14 5l23 4 3-6-12-3zm-22 19l1-1v-1h-4l2 2h1zm6 0h1l1-1h1v-1h-3c-1 0-3 0-2 1l1 1h1zm-12-2v1l-1 1 1-1h1v-1h-1zm20 2l1-1-2-1h-1v1l1 1h1zm6 1l1-2h-3l1 1v1h1z" clip-rule="evenodd"/><path fill="#f3c200" fill-rule="evenodd" stroke="none" d="M519 155v1l-1 1-1 3-1 3-1 1h-3l-4-1a143 143 0 00-25-1v-2a11 11 0 016-6l2-1 2-1 3-1 2 1h6l5 1 5 1 4 1h1zm-21-1h-4c-2 0-2 1-2 2v3l2 1c3 1 6-3 4-6zm14 3l-1-2h-4l-3 3 2 3 3 1c1 0 3-1 3-3v-2z" clip-rule="evenodd"/><path fill="#ffd32a" fill-rule="evenodd" stroke="none" d="M481 166l2-1 1-1h1l1 1 1 1 3-2h1l2 1 1 1 2-1 2-1h1l2 2 2-1 1-1 2 1 1 2 1-1 2-1 1 1 1 1h2l1-1v1a40 40 0 00-1 4l-1 1-2-2-1-1-3 2-1-1-1-1h-2l-2 1-2-1-1-1-1 1-1 1h-1l-2-1h-3l-2 1-2-1-2-1-1 2-1 1z" clip-rule="evenodd"/><path fill="#ffd32a" fill-rule="evenodd" stroke="none" d="M484 171l1-1 1 1h-2zm9-1v1h-3l1-1 1-1 1 1zm4 1v-1h3l-2 1h-1zm6 0l1-1 1 1h-2zm6 0l1-1 1 1v1h-2v-1z" clip-rule="evenodd"/><path fill="#f3c200" fill-rule="evenodd" stroke="none" d="M482 172h20l12 2s-2 5-1 6l-12-2h-19z" clip-rule="evenodd"/><path fill="#ffd32a" fill-rule="evenodd" stroke="none" d="M512 165h-1l1 1h1l1-1h-2z" clip-rule="evenodd"/><path fill="#f3c200" fill-rule="evenodd" d="M222 104c0 2-2 4-5 4-2 0-4-2-4-4 0-3 2-5 4-5 3 0 5 2 5 5z" transform="matrix(.59712 0 0 .60015 379 96)"/><path fill="#ffd32a" stroke="none" d="M518 158l-2 2-3 2-3 1-23-2h-1v-1l-1-3-2 5h5a891 891 0 0127 2l3-6z"/><path fill="#f3c200" fill-rule="evenodd" d="M199 101c0 2-2 4-4 4s-4-2-4-4c0-3 2-4 4-4s4 1 4 4z" transform="matrix(.59712 0 0 .60015 379 96)"/><path fill="#f3c200" stroke="none" d="M522 149l-3 3h-3l-5-1h-15l3 1 13 1 7 2 1-2 2-4z"/><path fill="none" d="M220 83c-3 12-18 0-24 9 14 1 27 4 39 6 1-4 4-5 5-9l-20-6z" clip-rule="evenodd" overflow="visible" transform="matrix(.59712 0 0 .60015 379 96)"/><path fill="none" d="M235 98v2l-1 2-2 5-2 5-1 1h-5l-1-1h-7a240 240 0 00-41-2v-3a19 19 0 0110-10l3-1 4-2 4-2h3l10 1 10 2 8 1 6 2h2zm-35-1l-2-1h-5c-2 1-4 2-4 4l1 4 3 3c6 1 10-6 7-10zm23 4s0 0 0 0l-2-3h-6c-2 1-4 3-4 6 0 1 0 3 2 4l5 2c3 0 5-2 6-5l-1-4z" clip-rule="evenodd" overflow="visible" transform="matrix(.59712 0 0 .60015 379 96)"/><path fill="none" d="M-151-233l-1 3m-3 11v2m-54-15l1-2 2-2" transform="matrix(.59712 0 0 .60015 606 304)"/><path fill="none" d="M173 126h33s19 1 20 3l-2 11s-12-3-19-3h-31z" clip-rule="evenodd" overflow="visible" transform="matrix(.59712 0 0 .60015 379 96)"/><path fill="#f3c200" stroke="none" d="M482 170l2-4 5 3 3-3 3 2 3-2 3 3 4-2 2 2 3-2 3 3 1-2v4l-4-3-3 2-3-2-3 1-3-2-3 2-3-2-4 3-4-3-2 3z" overflow="visible"/><path fill="none" d="M172 117l2-2 2-2h2l2 2 2 2 5-4h2l3 2 2 2 3-2 2-2 3 1 3 3 3-2 2-1c1-1 2 0 3 1l2 3 2-2 3-1 2 2 2 2 2-1c0-1 1-2 2-1v1a66 66 0 00-2 7v2l-2-1-2-3-2-1-5 3-2-2-2-1-1-1-2 1-3 2-3-3-2-1-2 2-2 1h-2l-3-2c-2-2-3 0-5 1l-2 2-4-3-3-1-2 2-2 2z" clip-rule="evenodd" overflow="visible" transform="matrix(.59712 0 0 .60015 379 96)"/><path fill="none" stroke-linecap="round" stroke-linejoin="round" d="M-161-266l-15-6 1 3v5l-1 2-1 2m1-12l-15-6c-3-6-1-11 4-11m-25 54v-2l1-2 2-2m-5 6l-1-3v-2l1-2m18-31v5l-2 3-4 5-5 5-3 3-3 3-2 3-2 3-1 5m-2 0l-1-2v-4m2 0v3l1 2m7-24l1 1v2l2 2 2 1" transform="matrix(.59712 0 0 .60015 606 306)"/><path fill="none" d="M239 86l4 1 9 1h2c0-2-2-3-4-4l-15-14-6-4a251 251 0 00-33-21l-4-2-21 12c-3 9-4 17-2 28l-8 10c-2 4-4 9-3 13l2 3" clip-rule="evenodd" overflow="visible" transform="matrix(.59712 0 0 .60015 379 98)"/><path fill="none" stroke-linecap="round" d="M165 21h2l3 1 2 1" transform="matrix(.59712 0 0 .60015 379 98)"/><path fill="#f3c200" d="M175 14l3 2v1l-1 1v1l1 1 2 1h1l1-1 1-1v-1l-5-2" transform="matrix(.59712 0 0 .60015 379 98)"/><path fill="#000" stroke="none" d="M487 109h-1v1h1v-1z"/></g><g stroke-width="1.1"><path fill="#0f553c" d="M476 178s1 0 0 0h-2l-1 1-1 1-1 1-1 1 1 2v1h1l2 1h3l1-1h1l1-1 1-1-1-2-1-1-2-1-1-1z"/><path fill="#4d7819" d="M470 182h1l1 1 1 1h3l1-1 1-1v-1l-1-2 2 2 2 2v1l-2 1-1 1-3-1h-3l-1-1h-1v-2z"/><path fill="none" stroke="#000" d="M313 285h-2l-4 1-3 1-2 1-2 3-1 3 2 2 1 2 2 1h13l2-1 3-2s2-1 1-2l-2-3-3-3-4-1-1-2z" transform="matrix(.45795 .00576 -.00672 .53935 335 22)"/><path fill="#ffd32a" d="M485 177h-6l-1 1h-2l1 2 2 1v1l2 2h1l1-1h5v-4l-2-1-1-1z"/><path fill="#f3c200" d="M477 179h2l1 1v1l2 1v-2l1-1v2l1 1h1s1 0 0 0l-1-1 1-2v1l2 2v1h-3l-1 1h-1l-1-1h-1l-2-2-1-1v-1z"/><path fill="none" stroke="#000" d="M331 283h-2l-4-1-2 1-4 1h-3l-3 1v1l2 2 3 3 2 2 3 2 1 1 3-1h6l3-1h2c1-1 2-1 1-3s0-3-2-4l-3-2-3-2z" transform="matrix(.45795 .00576 -.00672 .53935 335 22)"/><path fill="none" stroke="#000" d="M329 295l-2-2-1-1v-4" transform="matrix(.45795 .00576 -.00672 .53935 335 22)"/><path fill="#0f553c" d="M494 176h-4l-1 1-1-1h-1l-2 1v3l1 1 1 1 1 1h7l2-1v-1l-1-2-1-2-1-1z"/><path fill="none" stroke="#000" d="M352 281h-8l-2 1h-2l-3-1h-2l-4 2v2l1 3 1 2 3 1v2l1 1 3 1 6-1h8l3-1v-3c0-2 1-3-1-4l-2-3-2-2z" transform="matrix(.45795 .00576 -.00672 .53935 335 22)"/><path fill="none" stroke="#000" d="M342 282v1l-1 2 1 2" transform="matrix(.45795 .00576 -.00672 .53935 335 22)"/><path fill="#ffd32a" d="M503 177h-1l-2-1h-6v1l1 1v1l1 1v2l1 1h7l1-1v-1l-1-2-1-1v-1z"/><path fill="#f3c200" d="M495 178l1 1 1 1v1l1 1 1-1-1-1 1-1h2v2h-1l1 1 1-1 1-1v-1l1 1v3h-8v-3l-1-1v-1z"/><path fill="none" stroke="#000" d="M371 283h-1l-1-1-5-1h-12l-1 2 1 2 2 2 1 2 1 3v1l1 1 5 1h4l5-1h3l1-2v-2l-1-4-2-2-1-1z" transform="matrix(.45795 .00576 -.00672 .53935 335 22)"/><path fill="none" stroke="#000" d="M366 295l-2-2-1-2v-3" transform="matrix(.45795 .00576 -.00672 .53935 335 22)"/><path fill="#0f553c" d="M512 178h-1l-1-1h-3l-2-1h-1l-1 1v1l1 1v4l1 1h4l1 1h2l1-2v-3l-1-2z"/><path fill="none" stroke="#000" d="M390 285l-2-2-3-1h-2l-2 1h-2l-3-1h-5v3l1 2 1 3 1 2v1l1 2h6l3 1 3 1h4l1-3 1-4-1-3-2-2z" transform="matrix(.45795 .00576 -.00672 .53935 335 22)"/><path fill="none" stroke="#000" d="M381 283l-2 1v1l-1 2" transform="matrix(.45795 .00576 -.00672 .53935 335 22)"/><path fill="#ffd32a" d="M513 185h-1v-7h2l1 1h1l1 1h1l1 1v4l-1 1h-3l-2-1z"/><path fill="#f3c200" d="M512 179l1 2 1 2v1l2 1 1-1 1-1 1-1v4h-5l-2-1v-2l1-2-1-2z"/><path fill="none" stroke="#000" d="M393 298l-1-1v-6l-1-3-1-2v-2h5l2 2 2 1h2l3 1 1 2 1 2v3l-1 2-1 2h-8l-3-1z" transform="matrix(.45795 .00576 -.00672 .53935 335 22)"/></g></g><g><g stroke-width="1.1"><path fill="#998e7b" d="M412 197v-2l-1-2v-2l-2-1v-2l-2-1v-2l-2-1v-1l-3-1-2-1h-4l-2-1h-3l-2 1h-2v1l-2 1-1 1-2 1-1 2-2 1v1l-2 3-1 1-1 1v2l-1 2v3l-1-1v-4l1-3 1-2 1-1 1-2 1-2v-1l1-1 2-1 1-2 1-1 1-1h2l1-1h1l2-2h4l1-1h5l1 1h4l1 1 3 1v1l3 2v2l1 1 1 1 1 2 1 1 1 2v3l1 2-1 1-1 1h-3z"/><path fill="#ada495" d="M373 200v-3l1-3v-3h1l1-1v-1l2-3 1-1a4 4 0 011-2l1-1 2-1 1-1v-1h2l1-1 1-1h1l2-1h3l2-1h4l2 1h2l2 1 1 1h2v1l1 1h1l1 1a34 34 0 010 2h1l1 1 1 2v1l1 2 1 1v4h1-1v1a13 13 0 00-3 1v-2l1-2c1 0 0-1 0 0h-2v-1l1-1 1-1h-2l-1 1v-1l1-1 1-2h-2v1l-1-1a22 22 0 010-3 104 104 0 00-2 1h-1l1-1v-2h-3v-2h-2l-1 2v-3h-1c-1-1-1 0-2 1l-1 1v-3h-1v1l-1 1-1-1v-1l-1 1-1 1-1-1v-1l-1 1v1l-1-1h-1l-1 1h-2v1h-2v1l-1 1-1 1h-2v2l-1 1h-1v1l-1 2-1 1-1 2v1l-1 1a49 49 0 00-1 5c0 2 0 2-1 1z" color="#000" overflow="visible" style="marker:none"/><path fill="none" stroke="#000" d="M178 228l-1-4 2-2c-2 0-3-2-3-3l-2-3-3-3v-3l-4-2-1-3c-1 0-3 0-4-2 0-1 1-1-1-2a44 44 0 01-11-4h-8l-4-1-7-1-2 1-3 1h-5l-1 3-4 1c-2 0-1 2-3 2l-4 2-3 3-3 2-1 2-4 5-1 2-3 3-1 3-2 4v5l-2-2 1-7 2-6c0-1-1-3 1-4l3-1 1-5 2-2 2-2 2-3 3-2 3-3 3-2 2-2h4l4-3h2l4-2h3l3-1h2l3-1h10l3 1h4l6 1 2 2 6 2 2 1 5 3 1 4 3 2 1 3 3 2 1 4 2 2 1 4v3l2 3-2 3-3 1-4 1-3-1z" transform="matrix(.43853 0 0 .53682 334 75)"/></g><path fill="#ece2d1" d="M417 314l3 2 4 4 2 3v11l2 2h3l4 3 6 4 3 2 5 4 2 2 2 2h2l1 1 2 1 4 1 5 1v-4h2c1 0 2-1 1-2l-1-2-2-1-2-2-4-1h-4l-2-1-3-3-2-1-4-3-3-3-3-1-3-2v-6l1-5 1-12c0-3 1-7-1-9l-3-3-5-3-4-3-3-1c-2 0-4 0-6 4-2 3-4 3-4 8s1 8 2 9l2 4z"/><path fill="#dbceb9" d="M418 309l1-1 1 2 2-1v2c1 1 0 2 1 1l2-2v3h2c1-1 1-2 1 0s0 4 1 3h1v2h1l-1 3 2-1v2c1-2 3-2 2-3l-2-3h2l-1-3 1-1v-2l-1-1c1 0 3 1 1-1l-1-1c0-1 3 1 1-1l-2-2c0-1 2 0 1-2l-2-1c1-1 3-2 1-2l-2-1v-1l-3-1v-3h-1l-2-2h-3l-3 3-2 7 1 6 1 2z"/><path fill="#dbceb9" d="M464 356l-7-2-1-1-1-1h-1l-2-1a64 64 0 00-9-7l-5-4-7-4h-1l-3-1v-1l-1-2 1-4v-2l-1-2-1-3-7-7v-1l1 1 2 1 3 3 2 2v2l1 2v3l1 4 1 1 1 1h5l1 1v1l1 1 2 2 3 1c2 0 3 0 3-2v-1l1 1a54 54 0 006 4l2 2 4 2h2l6 2 1 1 1 1 2 2v1h-2l-1 1v3h-3z" color="#000" overflow="visible" style="marker:none"/><path fill="#82632c" d="M418 311l3 1 2 1 2 3 1 2v1l2 1v8l1 3 1 1-2 1v1l-1 1-1-2v-10l-3-4-3-3-2-2-1-3z"/><path fill="#0c0c0c" stroke="#0c0c0c" stroke-width=".5" d="M467 356h-1s0 0 0 0 0 0 0 0a27 27 0 01-4-1s0 0 0 0 0 0 0 0h-1s0 0 0 0 0 0 0 0 0 0 0 0 0 0 0 0h-1a60 60 0 01-3-1l-1-1h0l1-1 1-1v-2l-1-1v-1l2-1 1-1 1 1a33 33 0 002 0s0 0 0 0 0 0 0 0 0 0 0 0 0 0 0 0h1s0 0 0 0 0 0 0 0 0 0 0 0 0 0 0 0 0 0 0 0l1 1 2 2h1a6 6 0 012 2v1s0 0 0 0h-1s0 0 0 0l-2 1h0a91 91 0 010 3h0z" color="#000" overflow="visible" style="marker:none"/><path fill="none" stroke="#000" stroke-width=".5" d="M417 314l3 2 4 4 2 3v11l2 2h3l4 3 6 4 3 2 5 4 2 2 2 2h2l1 1 2 1 4 1 5 1v-4h2c1 0 2-1 1-2l-1-2-2-1-2-2-4-1h-4l-2-1-3-3-2-1-4-3-3-3-3-1-3-2v-6l1-5 1-12c1-6 0-8-1-9l-3-3-5-3-4-3-3-1c-2 0-4 0-6 4-2 3-4 3-4 8s1 8 2 9l2 4z"/><path fill="#9b7735" d="M417 221l2-1 2-1 3-2h6l3 1 2 1 3-1v-1l1-1 1-2-1-2v-2l-2-2h-2l-3-1-3-2-3-2-2-1v-3l-2-2h-2l-2-2-2-1h-2l-2 1-4 1-2 2h-2l-3-4-2-2-4-3v-4l-2 2v5l1 2v7l2 2 2 1-1 1-1 2 2 2-1 1-3-3 2 4-2-1 1 2-2 1 1 1h-1l1 1c1 1 3 0 1 1s-5 0-3 1c2 0 3 0 2 1-1 0 2 0 1 1l-1 1-2 2 2 1h-2c2 1 4 0 2 1s-3 1-2 2h2c-2 1-3 1-2 2h2v1c-1 1 1 1 1 1-1 1-3 2-1 2h1l-1 1c2 0 3-1 2 1-2 2-1 3 0 2 0 0 1-1 0 0v3c2 0 3-1 1 1-1 1 2 1 2 1s-4 2-2 2h3c-2 1 1 1 0 1l-1 1v2c0 1 3 0 1 1-1 1 3 2 2 3-2 0-2 1-1 2v1l2 1v2l2 2v6l-1 12-1 5-1 2-4 6-2 6-2 4-1 3c-1 1-4 3-5 2h-3l-2-3v-5l1-7 1-6 1-6v-3l2-1 1-2 2-3v-3l-1 3-2 2-1-2 1-2 2-4-2 3-1-1 2-2-1-1v-2l2-4s1-3-1-2l-2 3-2 2v-1l3-3 1-4-1-4h-1l-1 2-2 3-2 1 2-4 3-4 1-3v-6l1-1-3 1-2 3-2 3c-1 1-2 1-2 3l-1 6v6l1 6 2 8v7l-1 6-2 7-1 5v6l1 5 3 4 5 1 4-1 4-2v2l-1 7v5l-2 5-2 3-3 2-1 1-2 2v3l1 5v19l-1 2v3l1 2 1 1 1 4 1 2 2 1 1 1 1 2 2 1 3 1 1-1-1-2 2 1 3-1-1-2-2-1-1-2-2-3-2-3-2-2-1-2v-8l1-7 1-6v-1l4-5 5-3 3-2 4-4 3-5 3-3 2-4 1-10 2-10 1-3 2-2 1-2v-3l2-5 3-4 2-3 3-2 1-3 2-5 4-7 1-6-1-5-2-4-3-3-4-1v-3l-4-7-6-4-3-3-2-1z"/><path fill="#ece2d1" d="M438 218v-1l1-1 1-1-1-2v-4l-2-1-3 1-6-4-7-6-6-2-3-1-4 5-1 7 4 8 4 3 9-4a234 234 0 0014 3z"/><path fill="#28241c" d="M413 202l1-1 1-1h3l1-1s2 1 0-1l-8-2-5 2h-1v2l4 2h4z"/><path fill="#ece2d1" d="M395 189l-2 1v1l1 2 1 1v5l1 1 2 2v2l-1 1h1l2-1v-1l2 2 1 1v-3l-1-3-1-3-2-2-2-2-1-3-1-1zm38 50l-2 1 1 2 2 2 1 3 1 4v3l1 1 3 1 1 1 1-3-1-6-2-4-3-4-3-1zm-7 27l-2 1c-1 4-9 6-8 14l-1 1v6l1 4 2 2 2 2v-1l1-2 2-1 1-2v-3l1-3 2-5 3-2 3-4 2-2 1-3-1-1h-3l-3-1h-3z"/><path fill="#86662e" d="M428 238l-1-4-3-3-3-3-2-2-1-2c-1-1 0-2-2-3l-4-1-4-1-2-3-3-4-1-1 1 6 4 8 2 3 2 2h3l4 3 2 3 1 1h4l3 1zm3 5l-5-2-4-1h-8l-3 1h-2l2-2h4a288 288 0 0013 1l3 2zm-16 39l-2 1h-2l1-3v-7l2 1h1l1-4 2 2v-3l-1-2h2l-2-3-3-1h-4c-2 0-3 3-3 3l-3 2 1-4 1-4-2-2-1-2-1-2-1-1v-2l1-1v-6l2-1a47 47 0 002 12l3 2 3 2 2 2h3l2 1 2 1 3 3h1v5h-2v2l-1 1-1 2-1 1-1-1v3h-1l-1-1-1 3v1zm5 14l-2 1-1 3-2 2-1 5v6l-4 7-2 1-2 2-2 4-3 4-4 1-3 1-1-3 1-1v-1l1-2-1-2-1 3-4 4-2 3h-2l-1 2 1 5v22l-1 2v3l1 2h1l1 4 2 4 2 1v2h2l4 2 1-1-1-2 4 1 1-1v-1l-2-2-1-1-2-2-1-2-1-2-2-2-1-1-1-1v-10l2-9v-4l4-5 7-4 1-1 6-7 3-4 3-4 1-6 1-10 1-6z"/><path fill="#dbceb9" d="M386 370h-1l-1-1v-3l1-2v-7a80 80 0 000-12l1-2-1-2-1-3 5 4h1l2 1 1 1v1a4974 4974 0 01-5 25h-2z" color="#000" overflow="visible" style="marker:none"/><path fill="#ab8540" d="M409 280l-2-2-1-3v-5l2-3 2-2 2-1h2l2 2v2h-1l-1 3v1l-2-2-1 4v5l-2 1zm-7 46l-4 3-2-1-1-3 1-4 1-3 1-4v-4a154 154 0 010-7l2-6v-3l2-3 2-2 3-2 2 2 2 2 1 3-1 1-1 1v1l-1 2v2l-2 2 1 2-1 1-1 2-1 1-1 1-2 3v2l1 3 2 1-2 1-1 1 1 1-1 2v2z" overflow="visible"/><path fill="#28241c" d="M430 208l-1-1-1-1h-2l-2-1-2-1-1-1-1-2-1-1-2-1-3-1-2-1s-1 1 0 0l1-1v-1l1-1h1l3 1 1 1 2 1h1l2 1v3l2 1 2 2 1 1 2 1 1 1 2 1 1 1h-2l-1-1h-2zm-34 89l2-7 3-5 2-3 2-15 1-6-1-2-1-2-2-2-1-1v-1l-1-1 1-1h1v-1l-2-1 1-1-1-1-1-1v-1h1l-1-2h1-4l2-2h-1v-1l1-1h-2l1-3h-2c0 1 0 0 0 0l1-2v-1h-2l1-1 1-1-2 1h-1l2-2-1-1h1v-1l-3-1 2-2-1 1-1-1 3-1h-1l-3-1h3l-2-2h1l1-1v-1h1l-1-1v-1h-3l5-1h-1l-2-1 1-1-1-1 2-1-1-2 2 1-2-4 4 3v-1l-2-3 1-1 1-1-1-1-2-1v-1l-1-5v-3l-1-2v-5l2-1v2l1 3 2 1 3 3 3 3 1 3 1 1h2l1-1v-1h1a98 98 0 002 2h1l-1 1-1 2-1 2-1 1 1 1 1 2 1 1h8l3 1h2l4 1h-6l-2 1h-1l-1 1-2 1-1-1h-1l-2 1v1-1l1 1v1l1 1a105 105 0 003 1h-2l-3 1-5-2-1-1-2-2-1-2v3l1 3 1 2v2l2 2c2 0 2-1 2 1-1 1 2 0 0 2l-1 1h3c0 1 2 0 0 1l-1 2h2s-2 1 0 1c2 1 3-1 2 1-1 1 7 0 4 1l-4 3h2l-2 1s4 0 1 1l-2 1-1 2c0 2 2 1 2 3-1 2 0 4 1 4 1-1 2-2 1 0v9l1 2v1l-2-1-1 1-1-1-1 3-1 2-2 5-2 4v3h-1v5s0 3-3 3v5h-2l-2 6-2 1-1 1-1 1-1 1h-1zm-12 15l-3-2-3-4v-9l1-6 1-6 1-2 1-5v-8l-2-7-1-8v-5l1-7a45 45 0 015-5l1-2 3-1-1 1v8l-1 1-2 2-2 3-1 2v1h1l2-3 1-2 1-1 2 4-2 5-2 1-1 1v1l6-5v3l-2 4v1h1v1l-2 1v1h1l2-2-1 3-2 3v1s0 1 0 0l3-2 1-2v4l-2 3-2 1v1l-1 3-1 7-1 5-1 5-1 4 2 4 1 2 2 1v2h-3v1l2 2z"/><path fill="#0c0c0c" stroke="#0c0c0c" stroke-width=".5" d="M396 382a17 17 0 01-1 0s0 0 0 0l-1-1-2-1-1-1-1-1-3-4-1-3s0 0 0 0h3v-1l3-2h0l1 1h1l1 2 1 2 3 3v1l1 1h1v1l1 1h-4a29 29 0 01-2-1l1 1v2h-1 0z" color="#000" overflow="visible" style="marker:none"/><path fill="#232019" d="M424 199l-1-1-1 1v3h1l1-1v-2z"/><path fill="#ece2d1" d="M397 202h1l1 1 2 1 1 1 1-1v-6l-1-2-2-2-3-1-1-2-2-2-1-1v2l1 3 1 2v4l1 2 1 1z"/><path fill="#dbceb9" d="M424 267l2 2h1c2 0 3-2 3 0l1 2-3 3-2 1-4 2-2 2-2 3v4l1 3 1 3v2l4-3v-4l2-6 4-5 4-3 1-5-5-1-5-1zm14-51h-3l-2-1-3-1h-7l-3 1-2 1h-4v2l1 2h3l5-2 4-1h3l3 2h2l3-1zm-19-13v-2l-1-1-2-1v1zm-17-1v2l-1-2h-2l-1-2-1-1v-3l-1-3 2 2 2 3 1 2 1 2zm36 10v1l-1 1-2-1-1-1-2-1h4z"/><path fill="none" stroke="#000" stroke-width=".5" d="M417 221l2-1 2-1 3-2h6l3 1 2 1 3-1v-1l1-1 1-2-1-2v-2l-2-2h-2l-3-1-3-2-3-2-2-1v-3l-2-2h-2l-2-2-2-1h-2l-2 1-4 1-2 2h-2l-3-4-2-2-4-3v-4l-2 2v5l1 2v7l2 2 2 1-1 1-1 2 2 2-1 1-3-3 2 4-2-1 1 2-2 1 1 1h-1l1 1c1 1 3 0 1 1s-5 0-3 1c2 0 3 0 2 1-1 0 2 0 1 1l-1 1-2 2 2 1h-2c2 1 4 0 2 1s-3 1-2 2h2c-2 1-3 1-2 2h2v1c-1 1 1 1 1 1-1 1-3 2-1 2h1l-1 1c2 0 3-1 2 1-2 2-1 3 0 2 0 0 1-1 0 0v3c2 0 3-1 1 1-1 1 2 1 2 1s-4 2-2 2h3c-2 1 1 1 0 1l-1 1v2c0 1 3 0 1 1-1 1 3 2 2 3-2 0-2 1-1 2v1l2 1v2l2 2v6l-1 12-1 5-1 2-4 6-2 6-2 4-1 3c-1 1-4 3-5 2h-3l-2-3v-5l1-7 1-6 1-6v-3l2-1 1-2 2-3v-3l-1 3-2 2-1-2 1-2 2-4-2 3-1-1 2-2-1-1v-2l2-4s1-3-1-2l-2 3-2 2v-1l3-3 1-4-1-4h-1l-1 2-2 3-2 1 2-4 3-4 1-3v-6l1-1-3 1-2 3-2 3c-1 1-2 1-2 3l-1 6v6l1 6 2 8v7l-1 6-2 7-1 5v6l1 5 3 4 5 1 4-1 4-2v2l-1 7v5l-2 5-2 3-3 2-1 1-2 2v3l1 5v19l-1 2v3l1 2 1 1 1 4 1 2 2 1 1 1 1 2 2 1 3 1 1-1-1-2 2 1 3-1-1-2-2-1-1-2-2-3-2-3-2-2-1-2v-8l1-7 1-6v-1l4-5 5-3 3-2 4-4 3-5 3-3 2-4 1-10 2-10 1-3 2-2 1-2v-3l2-5 3-4 2-3 3-2 1-3 2-5 4-7 1-6-1-5-2-4-3-3-4-1v-3l-4-7-6-4-3-3-2-1z"/><path fill="#363026" d="M405 198l1 1v2l1-1h4l1-1-1 2-2 1-1-1-1 1-1 1-1 1-1-2v-1l1-2v-1z"/><path fill="#dbceb9" d="M420 208l1-1-2-1h-2l-1 1h-3l-2-1 2 2 2 1h1l1-1h4zm-2-5v-1l-1-2-1-1-1 1-1 1h-1l-1 1-1 2h1l3-1h3z"/><path fill="#9b7735" d="M429 255h6l5 1 3 2 3 3 3 2 3 1 3 1 2 2v3l-1 4-3 2-3 1-2 2-5 4-4 2-4 1h-4l-3-1h-5l-2 1v-2l2-1-3-1v-2l3-1 5-2h3l3 2 1-1h3c2 2 2 2 3 1l4-4 4-4-3-1-4-1-5-1-4-1h-3l-2-1-3 1-2-1-2-1-3-2"/><path fill="#86662e" d="M450 269l-2-1-4-1-5-1-3-1-3-1-4-1-3-1-1-3v-2l2-2c0-2 1-3-1-3h-2l-1-2 2-2v-2l-2-2h3l2 2 3 3 1 2v3l3 1v-3l-1-3-2-3c0-2 0-2 1-1l2 2 1 4v4l-1 1h-3l-3 1-1 2c0 1 0 2 2 2l3 1 3 1 2 1 2 1 3 1h6l1 3zm7-2l-1 3-2 3h-3l-2 1-3 2-1 2-2 2-2 1h-2l-2-1h-2l-1 2-1 4 4-1 5-2 6-4 2-2 2-1 2-1 2-1 1-2v-5z"/><path fill="#363026" d="M417 248h3l1-1h2v-1l-2-2h-4l-2-2h-4l-3 1-2 1v3l1 2 1 2 1 1 1 3 1 1 2 2 2 2v-2c-1-1-3-1-2-2l1-3-1-2h-2v-1l1-1c0-1-2-1 0-1h5zm-8-12l-4 3h-2l-1-2-1-3-2-2v-3l-2-3 1-3-1-2 2-3 2-2 1 1v5l3 2 1 3 1 2 2 2 2 1-1 1 1 2v1h-2zm-9-21v-3l1-1v3l-1 1zm8 1l-2-1-1-2v-3l3 2 1 2-1 2zm1 0h-2l1 1 2 1v-1l-1-1zm-3-6l-1-1v-2l2-1v2l-1 2zm-20 31l-1 3-2 3-2 3v4l2 1 2-3c1 1-1 4-1 4l-1 6 3-2-1 3c0 2 1 1 1 1l-2 5 1 3h3l-3 3-1 4c-1 3-1 0-1 0v-6l-2-8-1-7-1-7 3-6 3-5 1-2 1 3z"/><path fill="#663a1f" d="M413 202h4l1 1v1l-1 2h-3l-1-1v-3z"/><path fill="#8c502a" d="M417 204l-1 1h-2v-1h-1v-1l1-1h3v2z"/><path d="M415 205h-1v-1h1l1-1v1l-1 1z"/><path fill="none" stroke="#000" stroke-width=".5" d="M413 202h4l1 1v1l-1 2h-3l-1-1v-3z"/><path fill="#fff" d="M416 203h-1v1h1v-1z"/><path fill="#0e0a04" d="M439 216h-4l-2-1-2-1-3 1a129 129 0 005 1l2 1h3zm-1-3l-1-2h-4c0-1 0 0 0 0l2 1h1l1 1z"/><path fill="#0c0c0c" stroke="#0c0c0c" stroke-width=".5" d="M421 286v-1l2-2h1l-3-1-1-1 2-1a365 365 0 009-3l2 2 1 1s0 0 0 0v1s0 0 0 0l-1 2-1 2h0a248 248 0 00-11 1h0z" color="#000" overflow="visible" style="marker:none"/><path fill="none" stroke="#000" stroke-width=".5" d="M429 255h6l5 1 3 2 3 3 3 2 3 1 3 1 2 2v3l-1 4-3 2-3 1-2 2-5 4-4 2-4 1h-4l-3-1h-5l-2 1v-2l2-1-3-1v-2l3-1 5-2h3l3 2 1-1h3c2 2 2 2 3 1l4-4 4-4-3-1-4-1-5-1-4-1h-3l-2-1-3 1-2-1-2-1-3-2"/><path fill="#f5f0e7" d="M430 325l-1 3 1 2 2 1 3 1 2 2 2 2 2 2c1 0 2-1 1-2l-2-1-2-2-2-2v-2l-1-3 1-2 1-3v-4l1-3-1-4v-5l-1-4-1-2v1h-1l1 2v3l1 3h-1l1 3-1-1 1 3h-1v7l-1 2-2 1-2-1-1-1v-2c-1 0-2 0-1 1l1 3 1 1z"/><path fill="#473921" d="M436 268l-1-1h-3l-2-1s1 1 0 0l-3-1h-2l-1 1-2-2-2-1-2-1-3-1h-3l-1-1 2 1 1 1 2 1v-1l1 2 2 1a203 203 0 004 3l1-1h3l1-1 2 2h6z"/><path fill="none" stroke="#000" stroke-width=".5" d="M385 370l2 1h1l1-1 1-1 1-1h2m62-15l1-1 1-1v-4l1-1 2-1m-26-66l1 1-1 1v1l-1 2v2"/><path fill="#171717" d="M393 370h-2v1l-2 1v1l2 2 1 2 2 1v-2h3l-1-1-2-3-1-2zm70-23h-3l-1 1 1 2-1 2h3l3 2-1-3 2-1-3-3zm-33-68h-2l-3 1-2 1 2 1v1l-1 1h4l3 1 1-3v-1l-1-2z"/><path fill="#998e7b" d="M407 197l-1-1 1-1-2-2-1-2-1-1-1-2-1-1-1-2-2-1-1-1-4-1-2-1h-4l-2-1h-5l-2 1h-2l-1 1-2 1-1 1-3 1-1 2-2 1-1 1-2 3v1l-2 1-1 2v2l-1 3v-5l1-3v-2l2-1 1-2 1-2 1-1 1-1 2-1 1-2 2-1 1-1h2l2-1h1l2-2h5l2-1h5l1 1h6l1 1 3 1 1 1 3 2v2l2 1v1l2 2 1 1 1 2v3l1 2-1 1-1 1h-4z"/><path fill="#ada495" d="M359 200v-3l1-3v-3h1l1-1 1-1 1-3 1-1a4 4 0 013-2v-1l2-1 2-1v-1h2l1-1 1-1h2l2-1h5l2-1h4l3 1h2l3 1 2 1h1l1 1 1 1h1l1 1a30 30 0 010 2h2v1l1 2 1 1 1 2 1 1v4h1l-1 1a17 17 0 00-4 1l1-2 1-2h-3v-1l2-1 1-1h-2l-2 1v-1l1-1 1-2h-2v1l-1-1a18 18 0 010-3 106 106 0 00-2 1h-1v-3h-3l-1-1 1-1h-2l-2 2v-3h-1c-1-1-1 0-2 1l-1 1h-1v-3h-1l-1 1v1h-1v-1l-1-1v1l-2 1-1-1-1-1v1l-1 1-1-1-1 1a7 7 0 01-3 0v1h-3v1l-1 1-1 1h-2l-1 2-1 1h-2v1l-1 2-1 1-1 2v1l-1 1a43 43 0 00-2 5v1z" color="#000" overflow="visible" style="marker:none"/><path fill="none" stroke="#000" stroke-width=".5" d="M407 197l-1-1 1-1-2-2-1-2-1-1-1-2-1-1-1-2-2-1-1-1-4-1-2-1h-4l-2-1h-5l-2 1h-2l-1 1-2 1-1 1-3 1-1 2-2 1-1 1-2 3v1l-2 1-1 2v2l-1 3v-5l1-3v-2l2-1 1-2 1-2 1-1 1-1 2-1 1-2 2-1 1-1h2l2-1h1l2-2h5l2-1h5l1 1h6l1 1 3 1 1 1 3 2v2l2 1v1l2 2 1 1 1 2v3l1 2-1 1-1 1h-4z"/><path fill="#232019" d="M406 216l-3-4-1-1 2 5m7 25h-2c2-3 12-3 2 0zm3 22h-4c-2 0-3 3-3 3l-3 2 1-4 1-4-2-2-1-2-1-2-1-1v-2l1-1v-6l2-1a47 47 0 002 12l3 2 3 2 2 2z" overflow="visible"/><path fill="#15130f" d="M418 220h-6l-2-1h-2l-1-2-1-1-1-2-1-2v-2l-1-2v1l-1 1h1v2h1l-1 2h1s0-1 0 0l1 2v1s0-1 0 0l1 1 1 2v-1l3 2v-1l2 1 2 1v-1h4zm-16-17v-1l-1-1v-2h-1l1 2-2-1 1 1h-1l3 2z"/></g><path fill="#0f4b32" d="M473 185h-1l-1-1-1-2h1l1 1 3 1h1l1-1 1-2-1-1 2 1 1 2v1l-1 1h-6zm15-2l-1-1-1-2-1-2v-1l1 2 2 1 1 1h4l1-2v-1 1l2 2-1 2h-7zm23 1h-4l-2-1v-1l-1-1a16 16 0 00-1-3h2v4h1l2 1a10 10 0 012 0l2-1v-1 3h-1z"/></svg>