    <svg fill="#ababab" id="svg-weather-snow" xmlns="http://www.w3.org/2000/svg" width="362.329" height="362.329" viewBox="0 0 362.329 362.329">
      <path
        d="M288.007 222.967l-207.032-1.011c-39.389 0-71.463-32.074-71.463-71.499s32.074-71.499 71.499-71.499c9.67 0 19.126 1.935 27.897 5.661C112.245 37.399 151.729 0 199.784 0c21.703 0 42.727 7.76 59.196 21.851 16.286 13.933 27.18 33.19 30.673 54.224a7.499 7.499 0 01-6.17 8.627c-4.089.683-7.948-2.083-8.627-6.169-2.917-17.559-12.018-33.641-25.627-45.284A76.106 76.106 0 00199.784 15c-41.964 0-76.104 34.14-76.104 76.104 0 1.604.121 3.263.25 5.02l.039.538a7.498 7.498 0 01-11.645 6.779 56.216 56.216 0 00-31.313-9.483c-31.153 0-56.499 25.345-56.499 56.499s25.346 56.499 56.499 56.499l207.033 1.011c27.428 0 49.772-22.344 49.772-49.809s-22.345-49.809-49.81-49.809c-4.143 0-7.5-3.358-7.5-7.5s3.357-7.5 7.5-7.5c35.736 0 64.81 29.073 64.81 64.809s-29.072 64.809-64.809 64.809zM134.133 362.329c-4.143 0-7.5-3.358-7.5-7.5s3.357-7.5 7.5-7.5c5.408 0 9.808-4.4 9.808-9.808s-4.399-9.808-9.808-9.808-9.808 4.4-9.808 9.808c0 4.142-3.357 7.5-7.5 7.5s-7.5-3.358-7.5-7.5c0-13.679 11.129-24.808 24.808-24.808s24.808 11.128 24.808 24.808-11.129 24.808-24.808 24.808zM228.196 362.329c-13.679 0-24.808-11.129-24.808-24.808s11.129-24.808 24.808-24.808 24.808 11.129 24.808 24.808-11.129 24.808-24.808 24.808zm0-34.615c-5.408 0-9.808 4.4-9.808 9.808s4.399 9.808 9.808 9.808 9.808-4.4 9.808-9.808-4.4-9.808-9.808-9.808zM87.102 299.872c-13.679 0-24.808-11.129-24.808-24.808s11.129-24.808 24.808-24.808 24.808 11.129 24.808 24.808-11.129 24.808-24.808 24.808zm0-34.616c-5.408 0-9.808 4.4-9.808 9.808s4.399 9.808 9.808 9.808 9.808-4.4 9.808-9.808-4.4-9.808-9.808-9.808zM181.165 299.872c-13.679 0-24.808-11.128-24.808-24.808s11.129-24.808 24.808-24.808c4.143 0 7.5 3.358 7.5 7.5s-3.357 7.5-7.5 7.5c-5.408 0-9.808 4.4-9.808 9.808s4.399 9.808 9.808 9.808 9.808-4.4 9.808-9.808c0-4.142 3.357-7.5 7.5-7.5s7.5 3.358 7.5 7.5c-.001 13.679-11.13 24.808-24.808 24.808zM275.227 299.872c-13.679 0-24.808-11.129-24.808-24.808s11.129-24.808 24.808-24.808 24.808 11.129 24.808 24.808-11.129 24.808-24.808 24.808zm0-34.616c-5.408 0-9.808 4.4-9.808 9.808s4.399 9.808 9.808 9.808 9.808-4.4 9.808-9.808-4.4-9.808-9.808-9.808z"
      />
    </svg>
