    <svg
      fill="#ababab" id="svg-weather-sun-and-cloud"
      xmlns="http://www.w3.org/2000/svg" width="355.929"  height="355.929" viewBox="0 0 355.929 355.929"
    >
      <path
        d="M296.575 312.493h-.037l-187.293-.915c-36.029 0-65.37-29.341-65.37-65.407 0-36.065 29.341-65.406 65.407-65.406 8.511 0 16.84 1.638 24.606 4.798 3.521-42.628 39.34-76.241 82.862-76.241 45.847 0 83.146 37.299 83.146 83.146 0 .465-.005.934-.015 1.408 31.197 1.72 56.049 27.644 56.049 59.263-.001 32.727-26.627 59.354-59.355 59.354zM109.281 195.765c-27.794 0-50.407 22.612-50.407 50.406s22.612 50.407 50.407 50.407l187.306.915c24.451-.007 44.341-19.902 44.341-44.354 0-24.457-19.897-44.354-44.354-44.354-1.225 0-2.524.067-4.089.21a7.498 7.498 0 01-8.13-8.36c.363-3.036.54-5.708.54-8.168 0-37.576-30.57-68.146-68.146-68.146s-68.146 30.57-68.146 68.146c0 1.426.109 2.915.224 4.491l.036.488a7.5 7.5 0 01-11.645 6.778 50.156 50.156 0 00-27.937-8.459z"
      />
      <path
        d="M31.98 212.534a7.48 7.48 0 01-5.499-2.398C9.405 191.737 0 167.772 0 142.655c0-54.709 44.509-99.219 99.219-99.219 35.882 0 69.074 19.467 86.624 50.804a7.5 7.5 0 01-13.087 7.329c-14.899-26.605-43.077-43.133-73.536-43.133-46.44 0-84.22 37.781-84.22 84.219 0 21.319 7.982 41.661 22.476 57.277a7.5 7.5 0 01-5.496 12.602z"
      />
    </svg>
