    <svg fill="#ababab" id="svg-weather-sun" xmlns="http://www.w3.org/2000/svg" width="368.554" height="368.554" viewBox="0 0 368.554 368.554">
      <path
        d="M146.167 87.108c25.956-10.18 54.321-9.642 79.871 1.512 52.745 23.027 76.923 84.672 53.896 137.417a7.5 7.5 0 0013.747 6.001c26.336-60.325-1.317-130.83-61.642-157.166-29.225-12.758-61.666-13.372-91.349-1.729-29.685 11.643-53.059 34.148-65.817 63.371-26.336 60.326 1.316 130.83 61.642 157.166 15.303 6.681 31.502 10.03 47.729 10.03 14.53 0 29.083-2.687 43.03-8.072a7.5 7.5 0 00-5.403-13.993c-25.812 9.968-53.994 9.36-79.354-1.712-52.746-23.027-76.923-84.672-53.896-137.417 11.154-25.551 31.591-45.228 57.546-55.408zM303.974 53.974L280.62 77.327a7.5 7.5 0 005.303 12.803 7.474 7.474 0 005.303-2.197L314.58 64.58a7.5 7.5 0 000-10.606 7.5 7.5 0 00-10.606 0zM77.327 280.62l-23.354 23.354a7.5 7.5 0 005.303 12.803 7.474 7.474 0 005.303-2.197l23.354-23.354a7.5 7.5 0 000-10.606 7.5 7.5 0 00-10.606 0zM361.054 176.777h-33.027a7.5 7.5 0 000 15h33.027a7.5 7.5 0 000-15zM40.527 176.777H7.5a7.5 7.5 0 000 15h33.027a7.5 7.5 0 000-15zM291.227 280.62a7.5 7.5 0 00-10.606 0 7.5 7.5 0 000 10.606l23.354 23.354c1.464 1.464 3.384 2.197 5.303 2.197s3.839-.732 5.303-2.197a7.5 7.5 0 000-10.606l-23.354-23.354zM77.327 87.934c1.464 1.464 3.384 2.197 5.303 2.197s3.839-.732 5.303-2.197a7.5 7.5 0 000-10.606L64.58 53.974a7.5 7.5 0 00-10.606 0 7.5 7.5 0 000 10.606l23.353 23.354zM184.277 320.527a7.5 7.5 0 00-7.5 7.5v33.027a7.5 7.5 0 0015 0v-33.027a7.5 7.5 0 00-7.5-7.5zM184.277 48.027a7.5 7.5 0 007.5-7.5V7.5a7.5 7.5 0 00-15 0v33.027a7.5 7.5 0 007.5 7.5z"
      />
    </svg>
