<svg fill="#ababab" id="svg-weather-thunder" xmlns="http://www.w3.org/2000/svg" width="365.223" height="365.223" viewBox="0 0 365.223 365.223">
  <path d="M289.454 93.349c-4.143 0-7.5 3.358-7.5 7.5s3.357 7.5 7.5 7.5c27.465 0 49.81 22.344 49.81 49.809s-22.345 49.809-49.81 49.809h-87.468c-4.143 0-7.5 3.358-7.5 7.5s3.357 7.5 7.5 7.5h13.004l-17.155 24.205a7.501 7.501 0 006.119 11.837h20.214l-69.432 63.666 25.397-47.775a7.5 7.5 0 00-6.623-11.021h-32.189l45.46-61.89a7.5 7.5 0 00-1.605-10.484 7.499 7.499 0 00-10.484 1.604l-54.229 73.83a7.5 7.5 0 006.044 11.94h34.523l-40.041 75.323a7.502 7.502 0 0011.691 9.049l115.833-106.214a7.5 7.5 0 00-5.068-13.028h-24.981l14.913-21.042h56.078c35.736 0 64.81-29.073 64.81-64.809s-29.075-64.809-64.811-64.809zM140.111 214.456a7.5 7.5 0 00-7.5-7.5H82.458c-31.153 0-56.499-25.345-56.499-56.499s25.345-56.499 56.499-56.499a56.214 56.214 0 0131.313 9.483 7.502 7.502 0 0011.645-6.779l-.038-.524c-.129-1.761-.25-3.425-.25-5.034C125.127 49.14 159.266 15 201.23 15c34.827 0 65.153 23.535 73.748 57.233a7.5 7.5 0 0014.535-3.707C279.222 28.179 242.92 0 201.23 0c-48.055 0-87.539 37.399-90.875 84.62a71.214 71.214 0 00-27.897-5.661c-39.424 0-71.499 32.074-71.499 71.499s32.074 71.499 71.499 71.499h50.153a7.502 7.502 0 007.5-7.501z"/>
</svg>
