<svg version="1.1" id="Capa_1" xmlns="http://www.w3.org/2000/svg" x="0" y="0" viewBox="0 0 512 512" xml:space="preserve"><style>.st0{fill:#f0f0f0}.st1{fill:#338af3}</style><path class="st0" d="M0 85.3h512v341.3H0z"/><path class="st1" d="M0 85.3h512v48.8H0zM0 182.9h512v48.8H0zM0 280.4h512v48.8H0zM0 377.9h512v48.8H0z"/><path class="st0" d="M0 85.3h256v195H0z"/><path fill="#ffda44" d="M192 182.9l-26.2 12.3 14 25.3-28.4-5.4-3.6 28.6-19.8-21.1-19.8 21.1-3.6-28.6-28.4 5.4 14-25.3L64 182.9l26.2-12.3-14-25.4 28.4 5.5 3.6-28.7 19.8 21.1 19.8-21.1 3.6 28.7 28.4-5.5-14 25.4z"/></svg>