<svg version="1.1" id="Capa_1" xmlns="http://www.w3.org/2000/svg" x="0" y="0" viewBox="0 0 512 341.3" xml:space="preserve"><style>.st2{fill:#f0f0f0}</style><path fill="#d80027" d="M0 0h512v341.3H0z"/><path fill="#0052b4" d="M0 96.5h512v148.4H0z"/><path class="st2" d="M367.3 200.6l-8 6.2 3.5 9.6-8.5-5.7-8 6.3 2.8-9.8-8.5-5.7 10.2-.4 2.8-9.8 3.5 9.6zM346.7 164.9l-5.4 8.7 6.6 7.8-9.9-2.5-5.4 8.7-.7-10.2-9.9-2.5 9.4-3.8-.7-10.2 6.6 7.8zM315.2 138.5l-2.1 10 8.8 5.1-10.1 1-2.1 10-4.2-9.3-10.1 1 7.6-6.8-4.2-9.3 8.8 5.1zM276.6 124.4l1.4 10.1 10 1.8-9.1 4.5 1.4 10-7.1-7.3-9.2 4.5 4.8-9-7.1-7.4 10.1 1.8zM235.4 124.4l4.8 9 10.1-1.8-7.1 7.4 4.8 9-9.2-4.5-7.1 7.3 1.4-10-9.1-4.5 10-1.8zM196.8 138.5l7.6 6.8 8.8-5.1-4.2 9.3 7.6 6.8-10.1-1-4.2 9.3-2.1-10-10.1-1 8.8-5.1zM165.3 164.9l9.4 3.8 6.6-7.8-.7 10.2 9.4 3.8-9.9 2.5-.7 10.2-5.4-8.7-9.9 2.5 6.6-7.8zM144.7 200.6l10.2.3 3.5-9.6 2.8 9.8 10.2.4-8.5 5.7 2.8 9.8-8-6.3-8.5 5.7 3.5-9.6z"/><path fill="#ffda44" d="M0 0h512v96.5H0z"/></svg>